<svg width="689" height="296" viewBox="0 0 689 296" fill="none" xmlns="http://www.w3.org/2000/svg">
<path d="M168.261 15.0915C168.399 14.0908 169.328 13.0248 170.645 12.4612C176.81 9.82246 172.84 24.6644 172.326 27.4173C170.023 39.7496 166.391 52.2726 161.89 64.8472C147.559 104.879 121.825 173.514 92.7996 212.892C92.2915 213.581 91.5239 214.171 90.6082 214.502C83.0435 217.239 95.3839 200.105 96.9074 197.542C104.341 185.036 110.484 172.413 116.156 159.822C137.843 111.682 161.805 61.9617 168.261 15.0915Z" fill="white"/>
<path d="M238.758 2.23666C240.945 -0.376585 245.141 0.502827 243.8 3.32471C241.04 9.13119 233.221 16.4013 228.788 21.899C216.644 36.9613 204.659 52.0926 192.071 66.983C155.851 109.829 112.87 151.11 57.4708 175.079C42.2347 181.671 16.3305 193.89 4.82643 185.951C-17.2648 170.704 42.2606 118.104 66.6984 129.93C90.1537 141.28 116.349 207.245 127.902 227.064C140.328 248.379 159.554 264.489 197.013 247.98C200.116 246.613 202.066 249.346 199.426 251.567C193.777 256.317 180.523 258.716 174.189 259.573C156.06 262.027 142.256 256.792 133.418 246.675C106.987 216.424 98.2275 174.461 72.9779 143.476C58.2038 125.346 25.8992 137.934 10.9992 162.88C2.3604 177.343 8.49097 185.989 26.0631 181.779C48.5648 176.388 73.467 163.668 93.6478 150.969C156.416 111.473 195.313 54.1488 238.758 2.23666Z" fill="white"/>
<path d="M204.144 127.789C208.603 124.303 209.764 132.757 202.373 132.321C193.981 131.827 198.103 119.634 187.134 121.414C165.61 124.905 147.427 157.818 148.085 170.151C148.84 184.311 167.994 177.064 179.942 166.312C185.159 161.616 189.622 156.471 193.273 151.225C194.558 149.38 195.738 147.52 196.834 145.655C197.271 144.911 198.211 142.7 198.071 143.418C197.565 146.021 201.075 146.364 203.334 143.522C203.544 143.257 203.031 144.067 202.889 144.339C201.75 146.523 200.75 148.715 199.819 150.891C197.851 155.49 192.04 168.403 200.382 167.836C227.941 165.964 251.119 125.65 258.679 109.312C263.24 99.4563 265.674 84.0963 271.726 85.0597C275.772 85.7037 269.381 97.4486 268.097 100.223C259.56 118.661 249.557 137.263 244.318 155.465C243.113 159.648 238.101 175.065 246.589 173.819C261.741 171.594 276.814 156.666 285.101 145.89C299.342 127.372 308.384 106.876 314.637 88.2067C316.774 81.8283 318.435 75.5165 319.896 69.2503C320.36 67.257 320.804 65.2679 321.234 63.2816C321.431 62.3717 321.053 60.1611 321.814 60.5542C325.391 62.4024 322.63 63.0189 327.559 59.4603C328.964 58.4461 326.898 61.9712 326.58 63.2241C325.934 65.7775 325.3 68.3287 324.667 70.8798C322.741 78.6361 320.147 86.4961 317.598 94.3522C310.547 116.084 302.3 138.428 289.964 160.494C288.609 162.918 279.743 180.981 274.127 180.317C269.268 179.744 277.152 166.155 278.626 163.028C281.835 156.225 309.683 109.048 322.038 107.8C328.982 107.099 324.629 120.069 324.11 123.765C322.076 138.268 317.545 153.336 316.084 167.731C315.782 170.7 313.21 182.319 318.284 182.207C328.134 181.99 361.836 138.805 366.282 132.897C368.374 130.117 374.902 118.047 380.473 117.126C387.091 116.031 382.056 150.671 381.057 156.889C380.396 161.004 379.675 165.133 378.941 169.265C378.575 171.326 378.289 177.238 377.89 175.437C377.675 174.469 372.987 176.234 374.115 175.215C384.144 166.151 393.521 156.059 402.103 146.337C406.032 141.887 418.786 121.822 425.402 122.195C436.198 122.804 404.545 181.247 433.711 171.013C451.111 164.908 463.666 146.188 468.565 133.864C469.347 131.897 469.727 117.366 476.127 116.536C480.928 115.914 477.927 153.687 477.829 158.433C477.23 187.482 480.598 218.979 465.917 251.275C459.335 265.754 446.436 285.043 426.078 292.345C397.723 302.515 371.916 284.883 386.387 260.897C402.078 234.891 440.688 211.007 464.101 188.376C474.737 178.094 484.73 167.471 493.957 156.611C503.589 145.272 512.393 133.668 520.15 121.926C520.946 120.721 526.106 108.896 530.709 106.985C537.905 103.998 533.515 123.771 533.313 126.043C532.133 139.322 530.092 153.445 522.793 167.766C520.754 171.766 517.488 178.07 512.229 180.994C500.413 187.564 510.07 163.693 515.241 153.996C519.557 145.902 526.444 137.145 534.764 130.199C539.169 126.521 543.827 122.961 548.92 120.036C598.621 91.5023 564.363 154.146 589.521 159.097C616.971 164.499 679.292 132.558 683.03 103.825C683.376 101.165 688.577 99.4358 688.91 101.869C689.871 108.877 682.955 119.516 675.473 126.419C654.526 145.746 623.242 162.326 597.244 164.256C575.629 165.86 571.346 154.031 572.15 138.542C572.449 132.78 575.573 117.116 566.563 116.863C548.496 116.354 524.976 145.251 519.054 156.946C516.462 162.063 514.627 167.129 513.222 172.136C512.746 173.834 509.061 178.93 510.633 177.334C524.361 163.4 525.74 143.751 527.138 130.551C527.594 126.245 527.905 121.979 528.133 117.739C528.218 116.149 528.296 114.561 528.354 112.98C528.384 112.178 527.882 110.05 528.357 110.602C529.43 111.85 531.216 111.439 533.124 109.831C533.943 109.14 532.18 111.439 531.691 112.242C529.928 115.131 530.085 114.86 527.822 118.466C525.266 122.537 522.464 126.58 519.664 130.618C510.555 143.755 499.878 156.614 488.569 169.17C463.398 197.119 411.52 233.344 393.874 257.732C379.801 277.183 395.252 293.461 417.679 290.202C438.898 287.119 454.114 266.292 460.397 251.564C474.799 217.801 471.203 186.172 472.036 155.576C472.237 148.169 472.48 140.749 472.639 133.355C472.715 129.836 472.803 126.309 472.729 122.84C472.713 122.11 471.807 120.577 472.672 120.654C477.529 121.087 473.596 121.808 478.004 118.926C480.669 117.183 477.183 123.442 476.66 125.724C475.72 129.824 474.075 134.234 471.909 138.46C464.998 151.939 444.04 179.015 424.402 176.436C409.797 174.517 415.836 151.047 419.394 139.858C421.135 134.383 420.066 127.792 424.638 126.411C427.014 125.693 421.18 129.981 419.603 131.821C416.564 135.368 413.674 138.963 410.82 142.562C406.302 148.26 377.666 180.927 373.034 179.089C369.54 177.702 377.229 142.859 377.476 137.243C377.668 132.894 377.73 128.562 377.684 124.29C377.644 120.54 380.841 120.922 380.672 121.138C366.288 139.452 353.26 157.663 335.586 174.973C329.817 180.623 317.674 190.893 311.771 185.72C307.415 181.903 309.887 172.02 310.567 166.094C311.312 159.602 316.334 118.217 319.406 112.381C319.624 111.968 320.282 112.494 320.772 112.436C323.036 112.169 316.495 115.457 314.801 117.234C311.676 120.512 309.174 124.028 306.738 127.485C298.935 138.557 290.82 149.604 285.07 160.892C283.266 164.434 278.447 176.194 278.419 176.182C277.358 175.718 274.185 177.907 273.944 176.869C273.709 175.857 285.124 159.536 286.64 156.67C295.43 140.048 302.096 123.43 307.872 106.987C311.655 96.2168 315.569 85.2726 318.2 74.6719C318.82 72.1748 319.964 57.7011 325.77 57.3201C330.758 56.9928 320.615 86.8299 318.778 91.8855C309.286 118.012 287.677 169.17 245.336 178.486C232.954 181.21 236.111 165.419 237.819 159.133C242.092 143.399 249.66 127.197 257.487 111.163C259.937 106.144 262.686 100.997 264.586 96.0036C265.119 94.601 265.569 93.2049 266.024 91.8117C266.422 90.5948 266.656 87.2768 267.158 88.1693C268.806 91.0974 269.688 89.628 272.764 87.4371C273.576 86.8584 272.212 88.9054 271.951 89.638C271.036 92.2008 270.107 94.7601 269.145 97.3285C266.711 103.829 263.64 110.372 260.326 116.913C251.259 134.808 224.376 172.848 196.719 172.608C183.33 172.492 195.789 139.727 202.515 140.789C207.208 141.53 196.974 153.799 195.381 155.823C184.493 169.666 155.786 193.351 144.534 179.239C134.215 166.296 155.342 133.741 176.929 121.151C183.676 117.216 192.463 114.797 197.192 117.571C201.021 119.816 203.024 128.664 204.144 127.789Z" fill="white"/>
<path d="M226.019 118.38C224.646 118.635 223.405 118.31 222.977 117.489C221.073 113.846 240.796 111.16 244.618 110.422C261.514 107.157 278.41 104.067 295.305 100.639C360.192 87.4766 424.783 68.5283 489.804 55.7007C493.282 55.0145 494.275 58.2178 490.907 59.6415C485.532 61.913 477.349 62.6444 471.657 63.876C455.02 67.4761 438.385 71.1339 421.758 74.9086C356.105 89.8132 291.804 106.176 226.019 118.38Z" fill="white"/>
</svg>
