<svg width="552" height="181" viewBox="0 0 552 181" fill="none" xmlns="http://www.w3.org/2000/svg">
<path d="M0.132634 174.456C-0.458548 173.664 1.33106 171.29 2.52636 171.387C8.21872 171.85 11.2048 180.615 22.1256 169.835C39.6357 152.551 54.9682 125.836 65.4027 106.662C66.4235 104.786 68.7201 104.197 68.0254 106.028C65.8949 111.644 60.6086 119.375 57.0179 125.177C48.1628 139.488 37.762 155.533 25.6753 168.813C14.4727 181.121 4.19232 179.897 0.132634 174.456ZM67.8852 106.337C66.8516 108.205 64.564 108.815 65.2613 106.974C68.2436 99.0983 73.2437 89.6707 77.1283 81.6087C90.8592 53.1121 99.1074 29.1203 105.532 3.2564C105.93 1.65334 108.353 0.0583473 108.496 1.36175C109.116 7.0134 104.183 19.2435 102.112 26.4224C95.0697 50.8309 82.5959 79.7519 67.8852 106.337ZM105.88 2.4511C107.017 0.663543 109.076 0.311803 108.362 2.07801C104.973 10.4592 96.8346 21.8366 92.2646 30.6136C80.1494 53.8815 63.6281 89.5096 68.109 105.219C68.9597 108.201 64.3981 108.061 64.5073 102.275C64.6212 96.2422 66.566 88.9971 68.768 81.8444C76.4226 56.9806 88.7257 29.4147 105.88 2.4511ZM67.0186 109.724C66.0741 104.134 76.0139 114.839 76.3156 114.907C80.4776 115.843 87.6006 111.088 93.3484 106.409C113.502 90.0061 127.445 65.1221 141.377 44.7128C141.894 43.9549 142.678 43.3373 143.274 43.2591C145.618 42.9515 136.651 55.2457 135.171 57.4424C134.092 59.0435 133.01 60.6442 131.925 62.2442C122.646 75.9202 113.467 90.0898 101.056 102.082C84.3834 118.191 69.3131 123.305 67.0186 109.724ZM143.483 45.0202C143.185 45.4485 142.826 45.8331 142.419 46.1124C136.963 49.8509 153.673 25.9429 155.427 23.3768C155.573 23.1633 155.725 22.963 155.91 22.7697C162.575 15.8103 144.442 43.6423 143.483 45.0202ZM155.578 23.1609C155.823 22.8478 156.088 22.5682 156.391 22.3404C161.719 18.3369 144.601 43.2366 143.575 44.8751C142.402 46.7478 140.251 47.061 141.118 45.1733C144.006 38.8841 150.696 29.4048 155.578 23.1609ZM141.285 44.8588C141.83 43.9795 142.763 43.2466 143.4 43.2509C143.982 43.2548 144.098 43.8993 143.665 44.7159C138.651 54.1724 132.932 63.5228 128.42 72.9669C118.858 92.9844 110.153 114.291 107.926 131.443C106.172 144.944 108.059 160.162 117.187 164.055C120.085 165.291 135.668 162.584 139.618 152.974C140.387 151.103 145.032 151.71 137.229 158.959C131.259 164.504 123.431 167.852 118.789 167.954C107.19 168.209 105.116 153.718 104.53 142.677C103.238 118.347 121.074 77.4303 141.285 44.8588ZM139.614 153.934C139.092 153.139 140.741 150.905 141.95 150.884C148.864 150.765 149.211 158.499 160.607 151.328C170.769 144.934 183.664 129.724 190.345 119.008C192.267 115.925 193.027 119.373 186.455 127.834C179.903 136.267 171.105 146.149 162.919 152.212C152.535 159.903 143.088 159.221 139.614 153.934ZM192.551 119.158C189.791 123.088 190.749 118.264 192.449 115.842C195.209 111.912 194.251 116.736 192.551 119.158ZM142.446 151.167C142.857 152.279 140.468 154.741 139.661 153.986C137.035 151.526 136.95 144.085 138.112 138.696C139.802 130.858 149.773 118.79 157.372 112.663C174.471 98.8776 193.604 102.078 194.99 114.821C195.686 121.215 187.325 110.115 187.268 110.074C181.992 106.348 172.24 105.176 161.321 112.256C141.659 125.003 138.948 141.713 142.446 151.167ZM194.717 115.883C190.878 122.497 193.817 113.142 195.283 110.617C199.132 103.986 196.179 113.365 194.717 115.883ZM192.158 116.373C192.574 115.453 193.544 114.528 194.301 114.399C196.154 114.082 190.654 126.579 189.981 128.67C186.443 139.655 184.431 149.724 189.294 154.799C194.665 160.404 213.938 145.313 224.739 139.613C225.181 139.379 225.566 139.313 225.797 139.48C227.779 140.914 216.609 146.694 215.165 147.514C206.682 152.332 194.122 161.957 188.551 159.211C178.553 154.284 184.499 133.32 192.158 116.373ZM216.412 135.406C209.699 141.481 219.868 129.663 222.111 127.65C228.754 121.688 243.792 106.633 248.79 108.846C259.111 113.415 245.001 139.496 239.923 154.409C239.321 156.177 236.785 157.486 237.011 155.873C237.529 152.169 239.94 146.788 241.354 142.662C244.589 133.223 252.818 117.923 248.405 113.359C243.205 107.98 225.328 127.335 216.412 135.406ZM239.207 155.603C237.72 157.212 236.221 156.705 237.439 154.858C243.58 145.547 255.839 133.963 263.491 125.298C266.245 122.179 268.968 118.953 271.793 115.897C273.28 114.288 274.779 114.795 273.561 116.642C267.419 125.955 255.141 137.56 247.509 146.202C244.754 149.322 242.032 152.546 239.207 155.603ZM271.003 117.444C271.071 116.858 271.519 116.091 272.171 115.519C275.332 112.749 273.117 122.778 272.895 124.224C271.715 131.897 269.602 140.05 268.248 147.803C267.725 150.798 268.326 153.046 270.085 154.079C272.825 155.689 277.647 154.554 282.401 152.393C294.451 146.918 294.141 141.563 300.221 131.82C304.178 125.481 298.599 142.194 294.123 146.857C286.279 155.031 274.969 158.861 269.538 157.883C260.237 156.21 269.659 129.031 271.003 117.444ZM302.514 131.833C301.886 132.829 300.794 133.616 300.194 133.41C299.095 133.032 302.938 127.172 303.636 125.411C304.247 123.87 304.092 120.303 304.491 121.209C304.654 121.58 306.691 119.774 306.246 120.427C303.964 123.77 303.49 128.265 302.842 131.04C302.741 131.473 302.486 131.96 302.084 132.419C299.022 135.908 301.13 120.459 306.098 118.275C311.085 116.083 304.258 129.067 302.514 131.833ZM299.893 132.613C300.233 131.178 302.335 129.557 302.801 130.467C304.939 134.65 300.271 146.481 305.035 152.807C307.096 155.543 310.9 153.187 314.462 153.384C315.417 153.437 314.977 155.112 313.634 156.14C309.631 159.204 303.874 157.597 302.499 155.971C298.567 151.323 297.654 142.072 299.893 132.613ZM313.512 156.23C312.158 157.131 311.45 156.217 312.539 154.714C317.243 148.224 324.124 145.593 331.088 133.572C333.354 129.661 333.076 135.153 327.794 142.046C323.872 147.163 318.523 152.892 313.512 156.23ZM333.494 133.389C330.666 138.204 331.808 132.324 332.711 130.428C333.57 128.628 334.293 126.857 334.892 125.134C334.942 124.99 334.991 124.846 335.039 124.702C335.45 123.482 335.839 122.267 336.162 121.084C336.332 120.46 336.501 118.783 336.543 119.278C336.603 119.979 337.925 119.464 338.59 118.538C339.61 117.117 337.229 121.389 336.708 122.767C335.394 126.24 334.561 129.471 333.759 132.722C333.364 134.323 330.943 135.924 330.795 134.624C330.594 132.856 334.431 118.252 338.349 116.492C342.383 114.679 335.515 129.95 333.494 133.389ZM330.821 134.244C331.204 132.722 333.463 131.115 333.766 132.233C334.237 133.974 332.805 138.053 332.698 140.301C332.398 146.614 334.302 151.852 338.045 154.535C341.703 157.155 349.053 151.381 355.288 148.171C356.685 147.452 356.978 148.869 355.618 150.297C350.928 155.219 339.506 159.434 336.519 158.179C329.821 155.367 328.111 145.021 330.821 134.244ZM354.751 150.978C351.606 152.557 356.602 147.318 359.34 146.059C363.392 144.196 356.915 149.893 354.751 150.978ZM359.05 148.702C357.383 149.875 356.912 148.223 358.516 146.663C363.898 141.429 372.018 138.165 376.142 130.876C380.264 123.592 378.785 111.514 372.309 113.196C370.466 113.674 368.055 116.548 366.555 118.413C356.574 130.817 355.495 140.193 356.509 148.389C356.537 148.615 356.498 148.882 356.363 149.198C354.267 154.114 353.032 144.305 353.128 142.785C353.538 136.273 356.955 128.337 362.784 120.272C365.533 116.469 369.836 111.149 373.527 110.087C381.994 107.651 384.176 122.17 377.811 131.908C373.339 138.749 364.925 144.568 359.05 148.702ZM353.531 150.762C353.395 149.626 355.339 147.588 356.243 148.011C361.109 150.287 358.538 159.886 366.875 160.378C376.078 160.922 394.123 156.061 406.871 143.821C409.282 141.505 408.401 146.5 398.74 152.528C390.263 157.816 381.858 160.891 374.512 162.54C362.324 165.276 354.819 161.496 353.531 150.762ZM407.903 145.432C406.911 146.375 405.841 146.544 405.885 145.616C405.954 144.174 420.871 123.805 422.336 121.356C436.04 98.45 447.303 75.9644 453.617 54.7961C455.076 49.9044 460.075 36.2429 453.357 38.1601C447.287 39.8926 436.453 60.3687 433.937 65.0302C419.276 92.1884 411.885 121.188 408.878 143.723C408.865 143.82 408.851 143.894 408.819 144.001C408.611 144.703 407.935 145.54 407.231 145.966C404.784 147.45 406.373 141.912 406.616 140.471C407.618 134.545 409.043 128.382 410.669 122.134C415.981 101.719 422.369 80.1073 436.118 57.1575C439.553 51.4247 448.202 36.7938 454.707 35.0152C464.283 32.397 457.634 49.8931 455.348 57.2792C449.159 77.2691 437.943 99.0238 425.152 120.492C420.733 127.909 414.871 138.808 407.903 145.432ZM405.892 145.536C406.119 144.027 408.529 142.214 408.858 143.371C409.519 145.697 408.269 149.747 408.874 152.24C410.126 157.402 414.625 160.887 419.716 161.719C435.394 164.284 460.777 152.838 481.048 145.969C487.599 143.749 476.605 150.258 473.335 151.407C472.283 151.776 471.232 152.142 470.182 152.504C461.952 155.346 453.785 158.005 445.762 160.324C425.408 166.209 402.32 169.246 405.892 145.536ZM499.471 127.736C499.687 128.742 498.007 130.745 496.943 130.61C495.494 130.426 494.677 127.219 493.692 126.286C492.548 125.202 498.3 122.291 499.471 127.736ZM496.307 123.261C496.47 123.403 496.539 123.637 496.479 123.965C495.8 127.639 486.367 123.931 484.526 124.088C477.737 124.665 451.276 135.975 447.077 147.571C441.431 163.162 458.734 166.663 471.586 159.696C479.618 155.342 490.133 148.368 492.022 139.381C492.351 137.819 494.76 136.115 494.991 137.356C495.443 139.772 492.759 144.625 490.263 147.705C484.181 155.207 474.806 160.983 468.223 163.902C454.601 169.942 439.204 165.099 444.05 149.291C446.414 141.578 455.286 135.138 461.722 131.19C475.457 122.765 489.502 117.35 496.307 123.261ZM493.502 125.738C493.673 124.267 496.058 122.375 496.459 123.476C497.496 126.316 495.877 133.549 494.986 137.722C494.853 138.346 494.377 139.099 493.708 139.638C491.342 141.541 493.242 127.963 493.502 125.738ZM493.519 125.598C493.655 124.972 494.133 124.22 494.803 123.683C497.159 121.797 495.199 135.588 495.004 137.568C494.861 139.023 492.477 140.942 492.05 139.865C490.951 137.093 492.598 129.821 493.519 125.598ZM492.005 139.536C492.073 138.677 493.047 137.424 494.001 137.04C496.131 136.183 494.941 147.778 495.077 149.676C495.733 158.861 497.951 166.701 503.395 171.546C512.264 179.439 529.071 181.04 549.573 162.609C550.472 161.8 551.406 161.624 551.495 162.352C551.833 165.131 538.433 173.583 536.456 174.715C526.593 180.362 517.792 181.483 511.242 180.022C495.312 176.467 490.386 159.781 492.005 139.536Z" fill="white"/>
</svg>
