<svg width="529" height="193" viewBox="0 0 529 193" fill="none" xmlns="http://www.w3.org/2000/svg">
<path d="M0.0529197 138.32C0.12285 135.277 7.97278 133.401 9.68739 136.133C11.7337 139.394 10.3267 144.737 10.6864 148.404C11.5792 157.506 12.8556 166.624 15.8841 175.307C17.1477 178.93 20.5375 193.007 25.2445 184.49C26.7929 181.689 33.7381 180.731 34.8149 183.381C36.7828 188.225 24.2881 195.121 17.0258 192.021C0.151937 184.82 -0.245703 151.313 0.0529197 138.32ZM34.7788 184.621C33.3349 187.924 24.7851 188.408 25.0577 185.145C26.0922 172.764 39.0096 151.558 44.4514 138.322C54.2231 114.556 63.8849 90.787 72.9986 67.024C77.5902 55.0522 85.2381 41.4884 85.6192 29.7078C85.6458 28.8873 87.299 31.0233 88.7257 31.0285C90.6613 31.0356 94.8059 27.8632 94.2505 29.0029C93.2852 30.9841 92.8827 32.9962 92.3998 34.9641C90.4487 42.9152 89.1086 50.8363 87.8345 58.7379C83.3877 86.3155 79.9971 113.606 87.7171 139.428C90.301 148.07 94.3071 156.369 99.5022 164.301C100.912 166.454 102.351 168.607 103.99 170.684C104.842 171.765 109.257 173.879 107.092 173.717C105.606 173.605 101.651 175.547 102.357 174.661C109.863 165.234 108.349 137.894 110.566 126.276C116.19 96.8033 127.609 64.875 144.015 35.1661C145.762 32.002 147.65 28.8484 149.799 25.7132C153.05 20.9705 183.613 -7.68406 197.012 1.97546C202.359 5.82997 186.837 5.90205 180.487 8.80175C170.47 13.3756 164.27 19.0982 159.649 25.5444C142.348 49.6784 136.307 75.3625 127.519 99.7061C119.959 120.647 118.285 141.054 115.334 161.681C114.831 165.197 115.31 178.488 104.318 179.178C98.0209 179.574 95.4657 174.917 93.664 172.416C87.973 164.517 83.238 156.291 80.0126 147.67C69.3692 119.225 73.2553 88.5315 78.3048 57.7185C78.9743 53.6332 81.2935 28.7071 87.9169 26.039C98.6854 21.701 94.4821 33.6536 93.8179 35.8035C89.4856 49.8264 83.844 63.9069 78.3577 77.9508C72.9645 91.756 67.4125 105.563 61.7952 119.369C52.9483 141.113 44.2829 162.878 34.7788 184.621Z" fill="white"/>
<path d="M155.618 140.306C156.22 143.56 149.614 147.235 146.982 144.936C141.658 140.285 146.278 118.668 148.475 111.368C154.4 91.6762 183.034 50.5875 216.289 51.549C231.131 51.9781 230.471 66.6853 229.046 76.4417C226.041 97.0115 215.344 138.723 197.03 160.141C190.751 167.483 173.745 176.983 168.518 169.387C164.369 163.359 166.469 152.039 168 144.197C169.57 136.153 171.244 128.018 173.365 119.885C174.471 115.643 183.028 113.834 182.663 117.996C182.381 121.209 181.15 124.798 180.399 128.096C179.777 130.83 179.16 133.563 178.568 136.292C177.794 139.856 170.237 169.822 182.522 163.77C192.227 158.989 196.226 148.339 199.222 141.733C208.371 121.557 215.793 100.214 219.349 80.667C220.533 74.1542 223.537 59.1583 212.75 58.6228C199.682 57.9741 186.231 69.2267 177.995 77.8616C157.939 98.8891 152.053 121.027 155.618 140.306Z" fill="white"/>
<path d="M265.514 71.9867C265.943 67.8973 273.065 64.6745 274.329 68.2243C276.278 73.7004 274.278 82.6187 274.844 88.8227C276.698 109.156 284.893 126.75 289.37 145.853C290.218 149.469 283.524 153.937 281.064 151.194C277.504 147.224 277.242 138.668 275.752 133.398C270.299 114.111 263.134 94.6473 265.514 71.9867ZM289.436 146.149C289.817 149.776 283.472 153.81 281.082 151.214C277.407 147.221 280.107 135.003 280.509 129.111C281.848 109.538 284.657 84.6048 300.854 63.9998C318.116 42.0408 348.59 57.7551 359.468 65.6438C362.433 67.7939 357.704 73.7948 353.476 72.9516C345.446 71.3495 321.727 53.3615 310.758 62.9832C290.75 80.5344 287.538 128.074 289.436 146.149Z" fill="white"/>
<path d="M444.034 70.6191C444.529 73.766 440.231 78.1715 437.303 77.1851C435.267 76.4991 434.787 72.0541 433.572 70.3227C428.171 62.6244 414.826 59.1736 401.891 67.4012C378.709 82.1457 373.918 116.288 376.688 132.021C382.457 164.788 424.514 128.461 429.407 95.5696C429.971 91.7746 435.239 88.2482 437.126 90.6988C439.423 93.6817 434.731 104.341 432.877 108.783C419.828 140.037 383.454 169.269 370.246 142.439C362.059 125.808 370.102 88.9206 391.674 67.6892C412.068 47.6166 441.031 51.5477 444.034 70.6191ZM429.385 96.0831C429.391 91.9101 435.914 87.7535 437.383 91.138C443.262 104.676 435.741 127.352 447.304 139.206C464.924 157.27 493.566 148.115 522.894 124.364C526.725 121.261 530.357 123.763 527.678 128.022C525.113 132.1 517.377 136.758 513.635 139.381C498.241 150.169 482.825 157.898 468.345 157.644C434.99 157.061 429.338 127.566 429.385 96.0831Z" fill="white"/>
</svg>
