<?xml version="1.0" encoding="UTF-8"?>
<svg id="Layer_2" data-name="Layer 2" xmlns="http://www.w3.org/2000/svg" viewBox="0 0 190.82 190.82">
  <defs>
    <style>
      .cls-1, .cls-2, .cls-3, .cls-4, .cls-5, .cls-6, .cls-7, .cls-8, .cls-9 {
        fill: none;
      }

      .cls-2, .cls-3, .cls-5, .cls-6, .cls-7, .cls-8 {
        stroke-width: .47px;
      }

      .cls-2, .cls-4 {
        stroke: #c9ecf1;
      }

      .cls-2, .cls-4, .cls-5, .cls-7, .cls-8, .cls-9 {
        stroke-linecap: round;
        stroke-linejoin: round;
      }

      .cls-3 {
        stroke-miterlimit: 10.01;
      }

      .cls-3, .cls-6 {
        stroke: #0357ff;
      }

      .cls-4, .cls-9 {
        stroke-width: .95px;
      }

      .cls-10 {
        fill: #2b2bb2;
        fill-rule: evenodd;
      }

      .cls-5 {
        stroke: #809cf9;
      }

      .cls-6 {
        stroke-miterlimit: 4;
      }

      .cls-7 {
        stroke: #fc3;
      }

      .cls-8, .cls-9 {
        stroke: #00ab9c;
      }
    </style>
  </defs>
  <g id="Headers">
    <g id="Wheel">
      <g id="Challenges_of_testing" data-name="Challenges of testing">
        <g id="Group_20707" data-name="Group 20707">
          <path id="Stroke-1" class="cls-10" d="M2.18,75.45c-3.14,14.22-2.89,28.98.73,43.08l15.87-.27c1.82,6.14,4.37,12.04,7.6,17.56l-11,11.37c7.92,12.21,18.51,22.45,30.98,29.95l11-11.38c5.63,3.04,11.61,5.4,17.81,7.01l.27,15.87c14.22,3.14,28.98,2.89,43.08-.73l-.27-15.87c6.14-1.82,12.04-4.37,17.56-7.61l11.38,11c12.21-7.92,22.45-18.52,29.94-30.99l-11.37-10.99c3.04-5.64,5.39-11.62,7-17.81l15.87-.27c3.13-14.22,2.88-28.98-.73-43.08l-15.87.27c-1.82-6.14-4.37-12.04-7.6-17.56l10.99-11.37c-7.91-12.21-18.51-22.45-30.98-29.95l-11,11.38c-5.63-3.04-11.61-5.4-17.81-7l-.27-15.87c-14.22-3.14-28.98-2.89-43.08.73l.27,15.87c-6.14,1.82-12.03,4.37-17.56,7.61l-11.38-11c-12.21,7.92-22.45,18.52-29.95,30.99l11.38,10.99c-3.04,5.63-5.39,11.61-7,17.81l-15.87.27Z"/>
        </g>
      </g>
      <g id="Group_146475" data-name="Group 146475">
        <g id="Code">
          <g id="Group_3222" data-name="Group 3222">
            <g id="Group_3221" data-name="Group 3221">
              <line id="Line_146" data-name="Line 146" class="cls-7" x1="72.2" y1="54.14" x2="59.39" y2="54.06"/>
              <g id="Group_3219" data-name="Group 3219">
                <line id="Line_147" data-name="Line 147" class="cls-8" x1="64.15" y1="62.48" x2="76.51" y2="62.55"/>
                <line id="Line_148" data-name="Line 148" class="cls-2" x1="84.11" y1="62.58" x2="96.47" y2="62.65"/>
                <line id="Line_149" data-name="Line 149" class="cls-5" x1="64.1" y1="70.87" x2="89.76" y2="71.03"/>
                <line id="Line_150" data-name="Line 150" class="cls-2" x1="97.37" y1="71.05" x2="138.58" y2="71.3"/>
                <line id="Line_151" data-name="Line 151" class="cls-5" x1="64.05" y1="79.26" x2="83.35" y2="79.38"/>
                <line id="Line_152" data-name="Line 152" class="cls-2" x1="90.96" y1="79.4" x2="134.4" y2="79.67"/>
                <line id="Line_153" data-name="Line 153" class="cls-5" x1="64" y1="87.65" x2="105.55" y2="87.9"/>
                <line id="Line_154" data-name="Line 154" class="cls-4" x1="113.16" y1="87.93" x2="154.36" y2="88.18"/>
                <line id="Line_155" data-name="Line 155" class="cls-5" x1="63.95" y1="96.04" x2="95.34" y2="96.23"/>
                <line id="Line_156" data-name="Line 156" class="cls-8" x1="100.99" y1="96.25" x2="133.64" y2="96.45"/>
                <line id="Line_157" data-name="Line 157" class="cls-4" x1="139.28" y1="96.48" x2="161.24" y2="96.61"/>
              </g>
              <line id="Line_158" data-name="Line 158" class="cls-7" x1="71.89" y1="104.48" x2="59.08" y2="104.4"/>
              <line id="Line_159" data-name="Line 159" class="cls-7" x1="71.84" y1="112.86" x2="59.03" y2="112.79"/>
              <g id="Group_3220" data-name="Group 3220">
                <line id="Line_160" data-name="Line 160" class="cls-5" x1="63.79" y1="121.2" x2="89.79" y2="121.37"/>
                <line id="Line_161" data-name="Line 161" class="cls-9" x1="95.43" y1="121.39" x2="105.18" y2="121.45"/>
                <line id="Line_162" data-name="Line 162" class="cls-4" x1="110.83" y1="121.47" x2="119.09" y2="121.52"/>
                <line id="Line_163" data-name="Line 163" class="cls-5" x1="63.74" y1="129.59" x2="85.4" y2="129.73"/>
                <line id="Line_164" data-name="Line 164" class="cls-4" x1="93.01" y1="129.75" x2="102.85" y2="129.81"/>
              </g>
              <line id="Line_165" data-name="Line 165" class="cls-7" x1="71.68" y1="138.03" x2="58.88" y2="137.95"/>
            </g>
          </g>
        </g>
      </g>
      <g id="Group_146476" data-name="Group 146476">
        <g id="Ellipse_284" data-name="Ellipse 284">
          <circle class="cls-1" cx="94.41" cy="98.01" r="66.54"/>
          <circle class="cls-6" cx="94.41" cy="98.01" r="65.98"/>
        </g>
        <path id="Path-4" class="cls-3" d="M21.2,75.25l12.88-4.59,6.05,12.26"/>
      </g>
    </g>
  </g>
</svg>