<?xml version="1.0" encoding="UTF-8"?>
<svg id="Layer_2" data-name="Layer 2" xmlns="http://www.w3.org/2000/svg" viewBox="0 0 90.26 76.45">
  <defs>
    <style>
      .cls-1 {
        fill: none;
        stroke: #0357ff;
        stroke-width: .75px;
      }

      .cls-1, .cls-2 {
        stroke-miterlimit: 10;
      }

      .cls-2 {
        stroke: #fff;
        stroke-width: .51px;
      }

      .cls-2, .cls-3 {
        fill: #dcecff;
      }

      .cls-4 {
        fill: #d6f5f3;
      }

      .cls-5 {
        fill: #ffac1a;
      }
    </style>
  </defs>
  <g id="Headers">
    <g id="Code">
      <g>
        <rect class="cls-2" x="8.8" y=".79" width="30.3" height="7.56" rx="3.78" ry="3.78"/>
        <rect class="cls-2" x="8.8" y="68.16" width="30.3" height="7.56" rx="3.78" ry="3.78"/>
        <rect class="cls-5" x="22.3" y="15.01" width="47.62" height="7.56" rx="3.78" ry="3.78"/>
        <rect class="cls-3" x="22.3" y="29.23" width="29.05" height="7.56" rx="3.78" ry="3.78"/>
        <rect class="cls-2" x="22.3" y="41.57" width="44.2" height="7.56" rx="3.78" ry="3.78"/>
        <rect class="cls-4" x="56.19" y="29.23" width="26.45" height="7.56" rx="3.78" ry="3.78"/>
        <rect class="cls-2" x="74.75" y="15.01" width="15.26" height="7.56" rx="3.78" ry="3.78"/>
        <g>
          <polyline class="cls-1" points="4.81 8.82 .53 4.54 4.81 .27"/>
          <polyline class="cls-1" points="17.88 22.94 13.59 18.67 17.88 14.39"/>
          <polyline class="cls-1" points="42.05 .27 46.33 4.54 42.05 8.82"/>
          <polyline class="cls-1" points="32.55 54.52 36.83 58.8 32.55 63.07"/>
          <polyline class="cls-1" points="4.81 76.19 .53 71.91 4.81 67.64"/>
          <polyline class="cls-1" points="42.05 67.64 46.33 71.91 42.05 76.19"/>
          <g>
            <line class="cls-1" x1="16.27" y1="41.57" x2="16.27" y2="45.35"/>
            <line class="cls-1" x1="19.82" y1="41.57" x2="19.82" y2="45.35"/>
          </g>
          <g>
            <line class="cls-1" x1="68.79" y1="41.57" x2="68.79" y2="45.35"/>
            <line class="cls-1" x1="72.34" y1="41.57" x2="72.34" y2="45.35"/>
          </g>
          <line class="cls-1" x1="23.05" y1="63.07" x2="28.46" y2="54.33"/>
        </g>
      </g>
    </g>
  </g>
</svg>