<?xml version="1.0" encoding="UTF-8"?>
<svg id="Layer_2" data-name="Layer 2" xmlns="http://www.w3.org/2000/svg" viewBox="0 0 97.43 95.91">
  <defs>
    <style>
      .cls-1 {
        fill: #d6f5f3;
      }

      .cls-2 {
        fill: #2b2bb2;
      }

      .cls-3 {
        fill: #5777ea;
      }

      .cls-4 {
        fill: #0357ff;
      }

      .cls-5 {
        fill: #eef5ff;
      }

      .cls-6 {
        fill: #89a0f0;
      }

      .cls-7 {
        fill: #ffac1a;
      }
    </style>
  </defs>
  <g id="Headers">
    <g id="Design_Comp" data-name="Design Comp">
      <g id="Group_20240" data-name="Group 20240">
        <path id="Rectangle_19169" data-name="Rectangle 19169" class="cls-7" d="M7.65,36.88h47.67c4.23,0,7.65,3.43,7.65,7.65h0c0,4.23-3.43,7.65-7.65,7.65H7.65c-4.23,0-7.65-3.43-7.65-7.65h0c0-4.23,3.43-7.65,7.65-7.65Z"/>
        <g id="Ellipse_719" data-name="Ellipse 719">
          <path class="cls-4" d="M56.41,84.65c2.6,0,4.71,2.11,4.71,4.71s-2.11,4.71-4.71,4.71-4.71-2.11-4.71-4.71,2.11-4.71,4.71-4.71M56.41,82.79c-3.62,0-6.56,2.94-6.56,6.56s2.94,6.56,6.56,6.56,6.56-2.94,6.56-6.56-2.94-6.56-6.56-6.56h0Z"/>
        </g>
        <ellipse id="Ellipse_720" data-name="Ellipse 720" class="cls-1" cx="31.27" cy="89.35" rx="6.78" ry="6.56"/>
        <ellipse id="Ellipse_721" data-name="Ellipse 721" class="cls-7" cx="6.34" cy="89.35" rx="6.34" ry="6.56"/>
        <path id="Rectangle_19170" data-name="Rectangle 19170" class="cls-6" d="M7.65,59.18h47.67c4.23,0,7.65,3.43,7.65,7.65h0c0,4.23-3.43,7.65-7.65,7.65H7.65c-4.23,0-7.65-3.43-7.65-7.65h0c0-4.23,3.43-7.65,7.65-7.65Z"/>
        <circle id="Ellipse_337" data-name="Ellipse 337" class="cls-2" cx="7.68" cy="44.53" r="5.31"/>
      </g>
      <g>
        <g>
          <polygon class="cls-3" points="52.42 45.01 58.71 44.24 68.94 42.98 94.43 17.48 83.78 6.83 79.95 3 54.45 28.49 53.19 38.72 52.42 45.01"/>
          <polygon class="cls-3" points="52.42 45.01 58.71 44.24 59.43 44.15 59.43 23.51 54.45 28.49 53.19 38.72 52.42 45.01"/>
          <polygon class="cls-1" points="52.42 45.01 58.71 44.24 53.19 38.72 52.42 45.01"/>
        </g>
        <path class="cls-5" d="M79.95,17.49c.38.38.77.72,1.19,1.02.55.4,1.13.74,1.73,1.02,3.79,1.76,8.44,1.08,11.57-2.05,3.13-3.13,3.81-7.78,2.04-11.57-.28-.6-.62-1.18-1.02-1.73-.31-.42-.65-.81-1.02-1.19-4-4-10.48-4-14.48,0-1.46,1.46-2.39,3.25-2.78,5.13-.2.97-.27,1.96-.19,2.94.1,1.2.4,2.39.92,3.5.28.6.62,1.18,1.02,1.73.31.42.65.81,1.02,1.19Z"/>
        <path class="cls-1" d="M85.37,12.06c.09.09.19.18.3.26.14.1.28.19.43.26.95.44,2.11.27,2.9-.51.78-.78.95-1.95.51-2.9-.07-.15-.16-.3-.26-.43-.08-.1-.16-.2-.26-.3-1-1-2.63-1-3.63,0-.37.37-.6.81-.7,1.28-.05.24-.07.49-.05.74.02.3.1.6.23.88.07.15.16.3.26.43.08.1.16.2.26.3Z"/>
      </g>
    </g>
  </g>
</svg>