<?xml version="1.0" encoding="UTF-8"?>
<svg id="Layer_2" data-name="Layer 2" xmlns="http://www.w3.org/2000/svg" viewBox="0 0 70.53 39.62">
  <defs>
    <style>
      .cls-1 {
        fill: #d6f5f3;
      }

      .cls-2 {
        fill: #dcecff;
      }

      .cls-3 {
        fill: #5777ea;
      }

      .cls-4 {
        fill: #0357ff;
      }

      .cls-5 {
        fill: #ffae00;
      }

      .cls-6 {
        fill: #ffac1a;
      }

      .cls-7 {
        fill: none;
        stroke: #dcecff;
        stroke-miterlimit: 10;
        stroke-width: .34px;
      }
    </style>
  </defs>
  <g id="Headers">
    <g id="Design_Comp_2" data-name="Design Comp 2">
      <g id="Pencil">
        <g id="Group_381196" data-name="Group 381196">
          <path id="Path_213366" data-name="Path 213366" class="cls-7" d="M1.47,6.52h54.07v20.48H1.47"/>
          <line id="Line_57025" data-name="Line 57025" class="cls-7" x1=".82" y1="26.35" x2=".82" y2="7.17"/>
          <rect id="Rectangle_294630" data-name="Rectangle 294630" class="cls-7" x=".17" y="26.35" width="1.3" height="1.3"/>
          <rect id="Rectangle_294631" data-name="Rectangle 294631" class="cls-7" x=".17" y="5.87" width="1.3" height="1.3"/>
        </g>
        <line id="Line_57026" data-name="Line 57026" class="cls-7" x1="7.54" y1="10.03" x2="7.54" y2="23.93"/>
        <line id="Line_57027" data-name="Line 57027" class="cls-7" x1="5.44" y1="10.03" x2="9.71" y2="10.03"/>
        <line id="Line_57028" data-name="Line 57028" class="cls-7" x1="5.44" y1="23.93" x2="9.71" y2="23.93"/>
        <path id="Path_213556" data-name="Path 213556" class="cls-2" d="M18.12,9.85h1.09l5.64,14.23h-1.19l-1.86-4.69h-6.31l-1.82,4.69h-1.19l5.64-14.23ZM18.65,11.38l-2.74,6.95h5.48l-2.74-6.95Z"/>
        <path id="Path_213555" data-name="Path 213555" class="cls-5" d="M32.89,19v-2.06c.03-.63-.22-1.25-.69-1.68-.52-.44-1.19-.66-1.86-.62-1.06,0-2.11.31-2.99.91v-1.11c.92-.59,2-.89,3.1-.86.95-.05,1.88.27,2.6.88.65.63,1,1.51.96,2.41v7.21h-1.12v-.97c-.32.35-.71.62-1.15.79-.53.23-1.11.35-1.69.35-.97.03-1.93-.27-2.71-.87-.72-.55-1.13-1.4-1.1-2.3-.02-.89.39-1.74,1.11-2.28.79-.6,1.75-.91,2.74-.88.56,0,1.12.11,1.64.33.44.17.83.42,1.16.76ZM32.89,21.74v-1.33c-.19-.48-.56-.87-1.02-1.1-.52-.29-1.11-.44-1.71-.43-.71-.02-1.4.18-1.99.57-.53.36-.84.97-.82,1.62-.02.65.29,1.26.82,1.62.59.4,1.28.6,1.99.58.6,0,1.19-.14,1.71-.43.46-.23.82-.62,1.02-1.1h0Z"/>
      </g>
      <g id="Group_20240" data-name="Group 20240">
        <g id="Ellipse_719" data-name="Ellipse 719">
          <path class="cls-4" d="M66.98,33.52c1.41,0,2.55,1.14,2.55,2.55s-1.14,2.55-2.55,2.55-2.55-1.14-2.55-2.55,1.14-2.55,2.55-2.55M66.98,32.52c-1.96,0-3.55,1.59-3.55,3.55s1.59,3.55,3.55,3.55,3.55-1.59,3.55-3.55-1.59-3.55-3.55-3.55h0Z"/>
        </g>
        <ellipse id="Ellipse_720" data-name="Ellipse 720" class="cls-2" cx="53.37" cy="36.07" rx="3.67" ry="3.55"/>
        <ellipse id="Ellipse_721" data-name="Ellipse 721" class="cls-6" cx="39.87" cy="36.07" rx="3.43" ry="3.55"/>
      </g>
      <g>
        <g>
          <polygon class="cls-3" points="44.17 22.75 47.35 22.36 52.52 21.72 65.4 8.84 60.02 3.45 58.08 1.52 45.19 14.4 44.56 19.57 44.17 22.75"/>
          <polygon class="cls-3" points="44.17 22.75 47.35 22.36 47.71 22.32 47.71 11.88 45.19 14.4 44.56 19.57 44.17 22.75"/>
          <polygon class="cls-1" points="44.17 22.75 47.35 22.36 44.56 19.57 44.17 22.75"/>
        </g>
        <path class="cls-1" d="M58.08,8.84c.19.19.39.36.6.52.28.2.57.38.87.52,1.92.89,4.27.55,5.85-1.03,1.58-1.58,1.93-3.93,1.03-5.85-.14-.3-.31-.6-.52-.87-.15-.21-.33-.41-.52-.6-2.02-2.02-5.3-2.02-7.32,0-.74.74-1.21,1.64-1.4,2.59-.1.49-.13.99-.09,1.49.05.61.2,1.21.47,1.77.14.3.31.6.52.87.15.21.33.41.52.6Z"/>
      </g>
    </g>
  </g>
</svg>