<?xml version="1.0" encoding="UTF-8"?>
<svg id="Layer_2" data-name="Layer 2" xmlns="http://www.w3.org/2000/svg" viewBox="0 0 24.39 24.39">
  <defs>
    <style>
      .cls-1 {
        fill: #eef5ff;
      }

      .cls-2 {
        fill: #9bcced;
        isolation: isolate;
        opacity: .7;
      }
    </style>
  </defs>
  <g id="Headers">
    <g id="Info">
      <circle id="Ellipse_20" data-name="Ellipse 20" class="cls-1" cx="12.19" cy="12.19" r="12.19"/>
      <path id="Path_279" data-name="Path 279" class="cls-2" d="M6.07,6.07c-3.24,3.24-3.24,8.5,0,11.75,3.24,3.24,8.5,3.24,11.75,0,3.24-3.24,3.24-8.5,0-11.75,0,0,0,0,0,0-3.24-3.24-8.5-3.24-11.75,0ZM12.28,7.13c.71.05,1.24.66,1.19,1.36-.04.64-.55,1.15-1.19,1.19-.71,0-1.28-.59-1.28-1.3,0-.7.58-1.26,1.28-1.26ZM14.08,15.7c-.04.11-.1.21-.17.3-.43.48-1.04.75-1.68.75-.31,0-.62,0-.93-.05-.64-.14-1.09-.71-1.07-1.37l.21-1.37c.14-.79.28-1.59.42-2.38,0-.05.02-.11.02-.16,0-.33-.11-.46-.44-.49-.14-.01-.28-.04-.42-.07-.14-.04-.24-.17-.23-.32.02-.14.11-.23.28-.26.1-.02.2-.02.3-.02h2.42c.3,0,.47.14.47.44,0,.25-.03.49-.09.74-.16.91-.33,1.81-.49,2.72-.05.3-.12.6-.16.89-.01.15,0,.3.04.44.03.18.2.3.39.28.16-.02.32-.07.47-.14.11-.07.23-.12.35-.17.21-.08.37.04.31.24h0Z"/>
    </g>
  </g>
</svg>