<?xml version="1.0" encoding="UTF-8"?>
<svg id="Layer_2" data-name="Layer 2" xmlns="http://www.w3.org/2000/svg" xmlns:xlink="http://www.w3.org/1999/xlink" viewBox="0 0 190.14 167.24">
  <defs>
    <style>
      .cls-1, .cls-2, .cls-3, .cls-4, .cls-5 {
        fill: none;
      }

      .cls-6 {
        fill: #e8ab6a;
      }

      .cls-7 {
        fill: #14254c;
      }

      .cls-2 {
        stroke: #fff;
        stroke-miterlimit: 10;
        stroke-width: 4.38px;
      }

      .cls-8 {
        fill: #01a99d;
      }

      .cls-3 {
        stroke-miterlimit: 10;
        stroke-width: 1.17px;
      }

      .cls-3, .cls-5 {
        stroke: #0557fc;
      }

      .cls-4 {
        stroke: #0c1b38;
        stroke-linecap: round;
        stroke-linejoin: round;
        stroke-width: 28.11px;
      }

      .cls-9 {
        fill: #fff;
      }

      .cls-10 {
        fill: #da7f27;
      }

      .cls-5 {
        stroke-miterlimit: 4;
        stroke-width: 1.17px;
      }

      .cls-11 {
        clip-path: url(#clippath);
      }

      .cls-12 {
        fill: #e26841;
      }
    </style>
    <clipPath id="clippath">
      <path class="cls-1" d="M190.14,115.33l-3.83,15.22c-10.93-.6-21.98,1.93-31.78,7.59l-15.75,9.09-35.52-20.45c-4.86-2.8-9.99-4.94-15.25-6.41-3.14-26.05-9.02-75.18-9.02-76.36,0-1.6.32-34.37,1.29-34.37S162.19,0,162.19,0l18.63,36.95,9.32,78.38Z"/>
    </clipPath>
  </defs>
  <g id="Headers">
    <g id="Ninja">
      <g class="cls-11">
        <g id="Group_4263" data-name="Group 4263">
          <g id="Group_4230" data-name="Group 4230">
            <g id="Group_4228" data-name="Group 4228">
              <path id="Path_1592" data-name="Path 1592" class="cls-12" d="M170.56,65.65c-.23.04,2.94-21.1-8.42-29.46-8.4-6.18-17.62-.18-37.58-6.41-3.76-1.18-7.43-2.65-10.96-4.4l-4.71,7.31c3.11,1.63,6.41,2.89,9.82,3.75,6.21,1.55,11.5,1.41,21.16,1.1,6.86-.23,11.27-.75,17.34,1.41,1.37.43,2.68,1,3.92,1.71,10.03,6.13,9.66,24.96,9.43,24.99Z"/>
            </g>
            <g id="Group_4229" data-name="Group 4229">
              <path id="Path_1593" data-name="Path 1593" class="cls-12" d="M170.89,59.29c-.65-4.92-2.86-9.5-6.3-13.09-4.75-4.75-10.44-5.7-14.72-6.37-9.06-1.41-15.12.7-20.17,1.49-7.74,1.21-19.1.25-34.53-9.76-.68,3.6-1.36,7.21-2.04,10.81,6.81,3.52,14.22,5.75,21.85,6.57,20.11,2.03,31.65-7.45,44.6-.88,4.77,2.58,8.7,6.48,11.31,11.23Z"/>
            </g>
          </g>
          <g id="Group_4262" data-name="Group 4262">
            <g id="Group_4231" data-name="Group 4231">
              <path id="Path_1594" data-name="Path 1594" d="M124.97,113.93l-18.64,19.17,15.98,6.56,19.71-20.8v-26.28s-17.04,0-17.04,0v21.36Z"/>
            </g>
            <path id="Path_192747" data-name="Path 192747" class="cls-12" d="M115.19,139.1c3.58-12.95,14.32-22.67,27.56-24.94h0c10.5-1.69,21.18,1.66,28.83,9.06h0v15.88h-56.39Z"/>
            <path id="Path_192748" data-name="Path 192748" class="cls-7" d="M142.75,139.1c-1.51-6.56,1.76-13.28,7.85-16.14h0c6.87-3.08,14.94-.01,18.03,6.86.05.12.11.24.16.37,1.22,2.9,2.24,5.87,3.05,8.91h-29.09Z"/>
            <g id="Group_4261" data-name="Group 4261">
              <g id="Group_4245" data-name="Group 4245">
                <path id="Path_1602" data-name="Path 1602" d="M171.62,85.34l-35.47.11,2.97,28.47-6.99,23.16,39.45.09.05-51.83Z"/>
              </g>
              <g id="Group_4246" data-name="Group 4246">
                <path id="Rectangle_6097" data-name="Rectangle 6097" class="cls-7" d="M136.82,113.92h4.45c16.73,0,30.3-13.94,30.3-31.15h0v-22.64c.09-6.79-5.33-12.36-12.12-12.46h-4.45c-16.73,0-30.3,13.94-30.3,31.15v22.64c-.09,6.79,5.33,12.36,12.12,12.46h0Z"/>
              </g>
              <g id="Group_4247" data-name="Group 4247">
                <path id="Path_1603" data-name="Path 1603" class="cls-6" d="M157.88,85.23v-1.76c.15-11.15-8.77-20.31-19.92-20.47h0c-4.42,0-8.71,1.51-12.16,4.27-.73,2.53-1.1,5.15-1.1,7.78v25.46c3.61,3.34,8.34,5.2,13.26,5.2h0c11.15-.15,20.07-9.32,19.92-20.47h0Z"/>
                <path id="Path_1604" data-name="Path 1604" class="cls-2" d="M138.84,98.13c5.19-.07,9.34-4.34,9.27-9.53h0"/>
              </g>
              <g id="Group_4248" data-name="Group 4248">
                <path id="Path_1605" data-name="Path 1605" class="cls-10" d="M128.97,89.83h9.59s0-16.97,0-16.97l-9.59,16.97Z"/>
              </g>
              <g id="Group_4250" data-name="Group 4250">
                <g id="Group_4249" data-name="Group 4249">
                  <rect id="Rectangle_6098" data-name="Rectangle 6098" class="cls-7" x="124.7" y="68.93" width="39.01" height="2.38"/>
                </g>
              </g>
              <g id="Group_4252" data-name="Group 4252">
                <g id="Group_4251" data-name="Group 4251">
                  <rect id="Rectangle_6099" data-name="Rectangle 6099" class="cls-7" x="124.7" y="78.78" width="39.01" height="2.38"/>
                </g>
              </g>
              <g id="Group_4254" data-name="Group 4254">
                <g id="Group_4253" data-name="Group 4253">
                  <rect id="Rectangle_6100" data-name="Rectangle 6100" class="cls-7" x="124.7" y="98.49" width="31.34" height="2.38"/>
                </g>
              </g>
              <g id="Group_4256" data-name="Group 4256">
                <g id="Group_4255" data-name="Group 4255">
                  <rect id="Rectangle_6101" data-name="Rectangle 6101" class="cls-7" x="124.7" y="88.64" width="39.01" height="2.38"/>
                </g>
              </g>
              <g id="Group_4257" data-name="Group 4257">
                <path id="Rectangle_6102" data-name="Rectangle 6102" class="cls-9" d="M149.37,77.55h2.76c1.04-.01,1.88-.87,1.86-1.92h0c.01-1.04-.82-1.9-1.86-1.92h-2.76c-1.04.01-1.88.87-1.86,1.92h0c-.01,1.04.82,1.9,1.86,1.92h0Z"/>
              </g>
              <g id="Group_4258" data-name="Group 4258">
                <path id="Rectangle_6103" data-name="Rectangle 6103" class="cls-9" d="M127.58,77.55h2.76c1.04-.01,1.88-.87,1.86-1.92h0c.01-1.04-.82-1.9-1.86-1.92h0s-2.76,0-2.76,0c-1.04.01-1.88.87-1.86,1.92h0c-.01,1.04.82,1.9,1.86,1.92h0Z"/>
              </g>
              <g id="Group_4259" data-name="Group 4259">
                <ellipse id="Ellipse_197" data-name="Ellipse 197" cx="154" cy="75.63" rx="1.86" ry="1.92"/>
              </g>
              <g id="Group_4260" data-name="Group 4260">
                <ellipse id="Ellipse_198" data-name="Ellipse 198" cx="131.63" cy="75.63" rx="1.86" ry="1.92"/>
              </g>
            </g>
          </g>
        </g>
      </g>
      <path id="Path_192749" data-name="Path 192749" class="cls-12" d="M42.14,104.71l5.91-7.85c2.18-2.9,2.52-6.78.89-10.02l-5.31-10.54c-.5-1-1.72-1.4-2.72-.9-.3.15-.56.38-.76.66l-.79,1.14c-.28.41-.4.9-.34,1.39l3.12,26.11Z"/>
      <path id="Path_192756" data-name="Path 192756" class="cls-4" d="M142.1,136.84c-14.36,20.66-52.22,25.7-81.55-8.39"/>
      <path id="Path_192757" data-name="Path 192757" class="cls-12" d="M48.68,94.55l29.04,33.18-22.38,20.27-20.12-44.36,13.47-9.09Z"/>
      <g id="Group_147114" data-name="Group 147114">
        <path id="Path_192758" data-name="Path 192758" class="cls-9" d="M27.71,73.86c.6-1.45-.09-3.1-1.54-3.7l-10.58-4.37c-.98-.41-3.1.48-4.43,1.23.41,1.48,1.29,3.61,2.26,4.01l10.58,4.37c1.45.59,3.1-.09,3.7-1.54"/>
        <path id="Path_192759" data-name="Path 192759" class="cls-8" d="M25.56,72.85h0c-1.1,2.66.17,5.7,2.82,6.79,0,0,0,0,0,0l8.66,3.57c2.66,1.08,5.7-.21,6.78-2.87,1.07-2.64-.18-5.65-2.81-6.75l-8.66-3.57c-2.66-1.1-5.7.17-6.79,2.83"/>
        <rect id="Rectangle_29094" data-name="Rectangle 29094" class="cls-8" x="20.18" y="71.4" width="15.09" height="4.68" transform="translate(-51.02 71.25) rotate(-67.58)"/>
        <path id="Path_192760" data-name="Path 192760" class="cls-8" d="M10.54,66.77s1.38,3.75,2.24,4.11l2.21-5.5c-.86-.36-4.45,1.39-4.45,1.39"/>
      </g>
      <path id="Path_192761" data-name="Path 192761" class="cls-12" d="M19.13,80.71c-.48-.95-.34-2.09.35-2.89l5.12-5.98c.94-1.1,2.61-1.23,3.71-.29.11.09.21.19.3.3l24.1,28.52-13.51,5.82c-2.44,1.05-5.29.19-6.74-2.04l-13.33-23.45Z"/>
      <g id="Group_147115" data-name="Group 147115">
        <line id="Line_85" data-name="Line 85" class="cls-3" x1="6.48" y1="55.47" x2="10.76" y2="62.2"/>
        <line id="Line_86" data-name="Line 86" class="cls-3" x1=".23" y1="61.8" x2="7.86" y2="65.13"/>
        <path id="Path_192762" data-name="Path 192762" class="cls-5" d="M7.45,69.38l-4.65.08-2.79.05"/>
      </g>
    </g>
  </g>
</svg>