<?xml version="1.0" encoding="UTF-8"?>
<svg id="Layer_2" data-name="Layer 2" xmlns="http://www.w3.org/2000/svg" viewBox="0 0 72.61 117.41">
  <defs>
    <style>
      .cls-1 {
        fill: #1937cc;
      }
    </style>
  </defs>
  <g id="Headers">
    <path id="Leaf" class="cls-1" d="M7.26,35.59c-.12.25-.23.51-.35.76h0s10.43,20.85,10.43,20.85l-12.23-16.37C1.49,50.87.13,61.77,0,72.11l.05-.05,9.54,19.88L.1,79.24c.82,21.05,6.03,38.17,6.03,38.17,0,0,18.49-7.01,36.3-20.92l-21.31.09,25.94-3.88c5.12-4.41,10.04-9.41,14.29-14.99l-22.72-3.25,28.44-4.65c2.14-4.64,5.48-15.56,5.56-21.19l-27.37,5.84,27.27-10.28c-.43-7.58-2.13-15.38-4.12-22.27l-11.47,3.88,10.31-7.7C63.87,7.59,60.2,0,60.2,0c0,0-7.78,2.3-17.5,6.75l2.15,13.92-5.14-12.51c-4.42,2.15-9.11,4.7-13.56,7.66l5.3,20.61-10.21-17.99c-5.04,4.23-11.48,11.73-13.98,17.16Z"/>
  </g>
</svg>