<?xml version="1.0" encoding="UTF-8"?>
<svg id="Layer_2" data-name="Layer 2" xmlns="http://www.w3.org/2000/svg" viewBox="0 0 194.2 203.84">
  <defs>
    <style>
      .cls-1 {
        fill: #8174f2;
      }

      .cls-2 {
        fill: #071b3a;
      }

      .cls-3 {
        stroke: #0f254f;
        stroke-width: 24.63px;
      }

      .cls-3, .cls-4 {
        stroke-linejoin: round;
      }

      .cls-3, .cls-4, .cls-5 {
        fill: none;
        stroke-linecap: round;
      }

      .cls-6 {
        fill: #0b1122;
      }

      .cls-7 {
        fill: #ffb100;
      }

      .cls-4 {
        stroke: #0b1122;
        stroke-width: 11.08px;
      }

      .cls-8 {
        fill: #fff;
      }

      .cls-9 {
        fill: #5777ea;
      }

      .cls-10 {
        fill: #eef5ff;
      }

      .cls-5 {
        stroke: #071b3a;
        stroke-miterlimit: 10;
        stroke-width: 18.47px;
      }

      .cls-11 {
        fill: #e7aa6a;
      }

      .cls-12 {
        fill: #4f5d6c;
      }

      .cls-13 {
        fill: #24b374;
      }

      .cls-14 {
        fill: #e06940;
      }
    </style>
  </defs>
  <g id="Headers">
    <g id="Ninja_on_pie" data-name="Ninja on pie">
      <path id="Path_192187" data-name="Path 192187" class="cls-9" d="M185.97,199.93l-31.3.49c-.53-34.07-28.58-61.25-62.65-60.72l-.49-31.29c51.35-.81,93.63,40.17,94.44,91.52,0,0,0,0,0,0"/>
      <path id="Path_192184" data-name="Path 192184" class="cls-7" d="M.01,202.85l31.29-.49c-.53-34.07,26.65-62.12,60.72-62.65,0,0,0,0,0,0l-.49-31.3C40.19,109.21-.79,151.49.01,202.84c0,0,0,0,0,0"/>
      <g>
        <g>
          <path class="cls-4" d="M25.08,113.16c2.3,9.28,4.59,18.56,6.89,27.83"/>
          <path class="cls-6" d="M37.76,141.56c.19,3.27-2.43,6.01-5.7,5.97l-2.14-.03-19.3-.24c-1.67-.02-3.13-1.24-3.4-2.95-.29-1.9,1.01-3.68,2.91-3.98l10.27-1.79,10.6-2.18c3.37-.69,6.57,1.76,6.77,5.2h0Z"/>
          <path class="cls-3" d="M85.69,104.41c-20.12-26.85-45.02-35.11-55.33-27.66-11.09,8.02-5.09,34.09-4.68,35.8"/>
          <path class="cls-5" d="M81.01,40.14c-20.58-2.56-37.6,13.44-37.43,30.51.14,14.46,12.6,28.29,29.7,30.1"/>
          <path class="cls-5" d="M100.13,40.14c20.58-2.56,37.6,13.44,37.43,30.51-.14,14.46-12.6,28.29-29.7,30.1"/>
          <path d="M119,79.33l.89-24.36c.58-15.9-13.27-28.47-28.87-26.2h0c-15.15,2.21-24.85,17.41-20.58,32.26l6.73,23.43c2.89,10.04,12.48,16.55,22.77,15.47h0c10.55-1.12,18.67-9.89,19.06-20.59Z"/>
          <path class="cls-6" d="M65.86,129.69c-2.68-1.88-6.39-1.09-8.08,1.72l-1.1,1.84-9.93,16.55c-.86,1.43-.59,3.32.73,4.44,1.46,1.25,3.66,1.07,4.91-.39l6.92-7.8,7.42-7.88c2.36-2.5,1.95-6.51-.87-8.49h0Z"/>
          <path class="cls-4" d="M110.92,131.22c-5.69.63-11.51,1.19-17.46,1.67-10.9.89-21.43,1.45-31.57,1.75"/>
          <path class="cls-3" d="M106.27,100.84c4.42-.15,10.74-.1,18.27.92,10.51,1.42,15.87,2.05,20.14,6.1,4.07,3.86,7.29,10.73,5.9,15.5-4.31,14.81-53.61,11.57-58.02,11.26"/>
          <rect class="cls-13" x="79.77" y="82.26" width="40.92" height="13.68" transform="translate(213.23 161.32) rotate(170.94)"/>
          <g>
            <g>
              <rect class="cls-12" x="60.73" y="72.86" width="72.58" height="52.56"/>
              <rect x="60.73" y="124.18" width="72.58" height="4.71"/>
            </g>
            <path class="cls-10" d="M98.84,97.58l-2.88-3.82-.42,3.48-3.82,2.88,3.48.42,2.88,3.82.42-3.48,3.82-2.88-3.48-.42ZM96.95,99.7c-.35-.04-.6-.36-.56-.72s.36-.6.72-.56.6.36.56.72-.36.6-.72.56Z"/>
          </g>
        </g>
        <g>
          <path class="cls-1" d="M78.37,15.73c-4.89-3.76-6.56-7.42-8.38-9.35-3.34-3.55-11.38-5.42-32.12,2.25.91,3.39,1.82,6.79,2.73,10.18,15.03-8.12,22.42-7.42,26.39-4.9,1.81,1.15,3.73,3.02,7.59,4.71,4.52,1.97,8.94,1.85,11.94,1.45-2.07-.71-5.08-1.99-8.15-4.35Z"/>
          <path class="cls-1" d="M40.62,24.8c.53,3.13,1.07,6.25,1.6,9.38,9.55-7.43,16.75-8.58,21.64-8.19,3.37.27,6.84,1.06,11.88.18,4.61-.8,7.99-3.43,10.09-5.45-3.05.58-7.47.98-12.44-.26-4.53-1.13-6.86-2.45-9.2-3.22-4.42-1.45-11.63-1.16-23.56,7.55Z"/>
        </g>
        <g>
          <path class="cls-2" d="M99.32.25l-2.16-.19c-8.9-.79-16.61,6.11-16.82,15.04l-.38,16.66c-.19,8.14,5.98,15.04,14.09,15.75h0c8.11.72,15.39-4.98,16.64-13.03l2.55-16.47c1.37-8.83-5.01-16.97-13.91-17.76Z"/>
          <rect class="cls-1" x="80.19" y="13.03" width="33.09" height="8.23" transform="translate(191.58 42.76) rotate(-174.94)"/>
          <rect class="cls-11" x="81.94" y="17.19" width="28.84" height="8.46" rx="4.23" ry="4.23" transform="translate(190.45 51.25) rotate(-174.94)"/>
          <polygon class="cls-14" points="93.41 25.4 97.07 25.73 97.69 18.7 93.41 25.4"/>
          <g>
            <rect class="cls-8" x="84.8" y="19.41" width="4.44" height="2.36" rx="1.18" ry="1.18" transform="translate(171.89 48.76) rotate(-174.94)"/>
            <rect class="cls-8" x="102.81" y="21" width="4.44" height="2.36" rx="1.18" ry="1.18" transform="translate(207.7 53.53) rotate(-174.94)"/>
          </g>
          <circle cx="86" cy="20.5" r="1.19"/>
          <circle cx="104.01" cy="22.1" r="1.19"/>
        </g>
      </g>
      <path id="Path_192180" data-name="Path 192180" class="cls-9" d="M191.68,203.83h-46.43c-1.42.04-2.61-1.09-2.65-2.51-.04-1.42,1.09-2.61,2.51-2.65.04,0,.09,0,.13,0h46.43c1.42.04,2.55,1.22,2.51,2.65-.03,1.37-1.14,2.48-2.51,2.51"/>
    </g>
  </g>
</svg>