<?xml version="1.0" encoding="UTF-8"?>
<svg id="Layer_2" data-name="Layer 2" xmlns="http://www.w3.org/2000/svg" viewBox="0 0 252.18 126.35">
  <defs>
    <style>
      .cls-1 {
        stroke: #0c1b38;
        stroke-linecap: round;
        stroke-width: 25.9px;
      }

      .cls-1, .cls-2 {
        fill: none;
        stroke-miterlimit: 10;
      }

      .cls-3 {
        fill: #fff;
      }

      .cls-4 {
        fill: #8174f2;
      }

      .cls-5 {
        fill: #0c1b38;
      }

      .cls-6 {
        fill: #e7aa6a;
      }

      .cls-2 {
        stroke: #000;
        stroke-width: 14.91px;
      }

      .cls-7 {
        fill: #4f5d6c;
      }

      .cls-8 {
        fill: #e06940;
      }
    </style>
  </defs>
  <g id="Headers">
    <g id="Ninja">
      <g id="Elements_Wave_dBlue_downsctn_2" data-name="Elements Wave dBlue downsctn 2">
        <g id="Group_2177" data-name="Group 2177">
          <g id="Ninja_2" data-name="Ninja 2">
            <line id="Line_56" data-name="Line 56" class="cls-2" x1="208.92" y1="96.06" x2="222.19" y2="120.07"/>
            <g id="Group_2167" data-name="Group 2167">
              <path id="Path_1466" data-name="Path 1466" d="M222.26,122.72l-1.21-1.13c-1.9-1.76-4.63-2.3-7.05-1.38l-8.44,3.2c-.72.26-1.18.98-1.1,1.74v.03c.15.69.77,1.18,1.48,1.16h15.35c1.15-.26,1.87-1.39,1.61-2.54-.09-.42-.31-.8-.62-1.09Z"/>
            </g>
            <path id="Path_1467" data-name="Path 1467" d="M224.68,112.93l24.9,6.55c1.86.49,2.98,2.4,2.49,4.26-.04.17-.1.33-.17.49h0c-.55,1.28-1.81,2.12-3.21,2.12h-27.77c-1.94,0-3.51-1.57-3.51-3.51,0-.49.1-.97.3-1.42l2.89-6.53c.69-1.57,2.42-2.4,4.08-1.97Z"/>
            <path id="Path_1468" data-name="Path 1468" class="cls-1" d="M215.54,104.25c-5.74-14.77-19.27-25.07-35.03-26.69-21.12-1.96-34.65,13.57-35.86,15.01"/>
            <line id="Line_57" data-name="Line 57" class="cls-2" x1="43.26" y1="96.06" x2="29.99" y2="120.07"/>
            <g id="Group_2168" data-name="Group 2168">
              <path id="Path_1469" data-name="Path 1469" d="M29.92,122.72l1.21-1.13c1.9-1.76,4.63-2.3,7.05-1.38l8.44,3.2c.72.26,1.18.98,1.1,1.74v.03c-.15.69-.77,1.18-1.48,1.16h-15.35c-1.15-.26-1.87-1.39-1.61-2.54.09-.42.31-.8.62-1.09Z"/>
            </g>
            <path id="Path_1470" data-name="Path 1470" d="M27.5,112.93l-24.9,6.55c-1.86.49-2.98,2.4-2.49,4.26.04.17.1.33.17.49H.28c.55,1.28,1.81,2.12,3.21,2.12h27.77c1.94,0,3.51-1.57,3.51-3.51,0-.49-.1-.97-.3-1.42l-2.89-6.53c-.69-1.57-2.42-2.4-4.08-1.97Z"/>
            <g id="Group_2172" data-name="Group 2172">
              <g id="Group_2169" data-name="Group 2169">
                <path id="Path_1471" data-name="Path 1471" class="cls-7" d="M92.89,53.89c5.23,15.65,13.31,41.45,17.58,56.21,1.59,5.47,4.56,16.25,4.56,16.25h5.57s-2.92-11.33-4.47-17.07c-4.07-15.08-11.97-41.43-16.96-57.51"/>
              </g>
              <g id="Group_2170" data-name="Group 2170">
                <path id="Path_1472" data-name="Path 1472" class="cls-7" d="M90.15,45.44l-5.24,5.66.33,1.07,11.22,2.54,7.82-8.44-.33-1.07-7.35-1.67-6.45,1.91Z"/>
              </g>
              <g id="Group_2171" data-name="Group 2171">
                <path id="Path_1473" data-name="Path 1473" class="cls-7" d="M84.32,26.62l-5.79-18.69c-.24-.78.19-1.61.97-1.85,0,0,0,0,0,0l3.59-1.11c.78-.24,1.61.19,1.85.97,0,0,0,0,0,0l12.77,40.96-6.43,1.99-2.54-7.96-4.44-14.32Z"/>
              </g>
            </g>
            <path id="Path_1474" data-name="Path 1474" class="cls-1" d="M36.64,104.25c5.74-14.77,19.27-25.07,35.03-26.69,21.12-1.96,34.65,13.57,35.86,15.01"/>
            <path id="Path_1475" data-name="Path 1475" d="M97.92,126.35h61.99l.83-22.74c.79-21.55-17.98-38.58-39.12-35.5h0c-20.52,2.99-33.66,23.59-27.88,43.71l4.17,14.53Z"/>
            <g id="Group_2176" data-name="Group 2176">
              <g id="Group_2173" data-name="Group 2173">
                <path id="Path_1476" data-name="Path 1476" class="cls-4" d="M145.16,53.43c7.58-2.99,12.85-2.4,16.26-3.15,6.28-1.38,13.85-9.21,19.23-37.89l-13.38-3.81c-.99,22.53-6.8,30.42-12.34,33.2-2.52,1.27-5.95,2.17-10.47,5.4-4.33,3.21-7.69,7.54-9.74,12.53,3.12-2.64,6.64-4.76,10.44-6.28Z"/>
                <path id="Path_1477" data-name="Path 1477" class="cls-4" d="M160.48,4.55l-11.7-4.55c1.94,15.84-1.65,24.78-5.4,30.04-2.59,3.64-5.83,7.02-8.26,13.33-1.73,4.86-1.96,10.12-.67,15.11,1.87-5.21,4.84-9.96,8.72-13.91,4.35-4.36,7.42-6.1,9.89-8.23,4.64-4.03,9.2-12.39,7.42-31.79Z"/>
              </g>
              <g id="Group_2175" data-name="Group 2175">
                <path id="Path_1478" data-name="Path 1478" class="cls-5" d="M126.66,43.25l-2.87.09c-11.26.37-20.08,9.8-19.71,21.06.01.44.04.89.09,1.33l2.16,21.88c1.06,10.7,10.23,18.74,20.97,18.38h0c10.74-.36,19.37-8.99,19.71-19.73l.7-21.97c.36-11.26-8.48-20.68-19.74-21.04-.44-.01-.88-.01-1.32,0Z"/>
                <rect id="Rectangle_1196" data-name="Rectangle 1196" class="cls-4" x="104.35" y="65.5" width="43.64" height="10.86" transform="translate(-2.27 4.2) rotate(-1.89)"/>
                <rect id="Rectangle_1197" data-name="Rectangle 1197" class="cls-6" x="107.02" y="70.99" width="38.04" height="11.15" rx="4.45" ry="4.45" transform="translate(-2.46 4.2) rotate(-1.89)"/>
                <path id="Path_1479" data-name="Path 1479" class="cls-8" d="M122.81,82.26l4.84-.16-.31-9.3-4.53,9.47Z"/>
                <g id="Group_2174" data-name="Group 2174">
                  <rect id="Rectangle_1198" data-name="Rectangle 1198" class="cls-3" x="110.71" y="76.84" width="5.85" height="3.11" rx="1.24" ry="1.24" transform="translate(-2.53 3.79) rotate(-1.89)"/>
                  <rect id="Rectangle_1199" data-name="Rectangle 1199" class="cls-3" x="134.55" y="76.04" width="5.85" height="3.11" rx="1.24" ry="1.24" transform="translate(-2.49 4.58) rotate(-1.89)"/>
                </g>
                <circle id="Ellipse_52" data-name="Ellipse 52" cx="113.78" cy="79.7" r="1.58"/>
                <circle id="Ellipse_53" data-name="Ellipse 53" cx="137.63" cy="78.91" r="1.58"/>
              </g>
            </g>
          </g>
        </g>
      </g>
    </g>
  </g>
</svg>