<?xml version="1.0" encoding="UTF-8"?>
<svg id="Layer_2" data-name="Layer 2" xmlns="http://www.w3.org/2000/svg" viewBox="0 0 126.03 128.52">
  <defs>
    <style>
      .cls-1 {
        fill: #8174f2;
      }

      .cls-2 {
        fill: #d87e27;
      }

      .cls-3 {
        fill: #14254c;
      }

      .cls-4 {
        fill: #0c1b38;
      }

      .cls-5 {
        fill: #101422;
      }

      .cls-6 {
        fill: #fff;
      }

      .cls-7 {
        fill: #f07043;
      }

      .cls-8 {
        fill: none;
        stroke: #000;
        stroke-miterlimit: 10;
        stroke-width: 5.65px;
      }

      .cls-9 {
        fill: #e6a96a;
      }

      .cls-10 {
        fill: #e06940;
      }
    </style>
  </defs>
  <g id="Headers">
    <g id="Ninja_and_Kendoka_back_to_back" data-name="Ninja and Kendoka back to back">
      <g>
        <g>
          <path class="cls-9" d="M113.3,128.48c-.91,0-1.78-.53-2.16-1.42l-11.3-26.07c-.52-1.19.03-2.58,1.23-3.1,1.19-.52,2.58.03,3.1,1.23l11.3,26.07c.52,1.19-.03,2.58-1.23,3.1-.31.13-.62.2-.94.2Z"/>
          <path class="cls-9" d="M110.94,125.98c-.08,1.32.93,2.46,2.26,2.54.06,0,.11,0,.17,0h.91l8.21-.1c.82-.01,1.47-.69,1.46-1.51-.01-.72-.54-1.32-1.25-1.44l-4.37-.76-4.51-.93c-1.3-.27-2.56.57-2.83,1.86-.02.11-.04.23-.05.35h0Z"/>
          <path d="M76.69,76.74l8.47,24.23.29,20.14c0,.37.31.67.68.67h36.67c.38,0,.68-.3.68-.68,0-.14-.04-.28-.12-.39l-18.13-26.11-20.88-20.11-7.65,2.26Z"/>
        </g>
        <g>
          <path class="cls-9" d="M50.65,128.48c-.36,0-.73-.08-1.07-.26-1.16-.59-1.62-2.01-1.03-3.17l12.93-25.3c.59-1.16,2.01-1.62,3.17-1.03,1.16.59,1.62,2.01,1.03,3.17l-12.93,25.3c-.42.82-1.24,1.29-2.1,1.29Z"/>
          <path class="cls-9" d="M48.28,125.98c-.07,1.32.94,2.46,2.26,2.53.05,0,.1,0,.15,0h.91l8.21-.1c.82-.02,1.47-.69,1.45-1.51-.01-.72-.54-1.32-1.25-1.43l-4.37-.76-4.51-.93c-1.3-.27-2.56.57-2.83,1.86-.02.11-.04.23-.05.35h.01Z"/>
          <polygon points="68.36 72.58 41.61 121.93 83.08 121.78 83.23 101.86 78.62 75.55 68.36 72.58"/>
          <path d="M53.25,100.45l-11.09,20.46c-.18.33-.06.74.27.92.1.06.22.09.34.08l39.63-.14c.37,0,.68-.3.68-.68h0s.1-12.75.1-12.75c.03-4.16-1.58-8.16-4.48-11.14l-.25-.26c-4.04-4.15-10.03-5.76-15.6-4.19h0c-4.1,1.16-7.56,3.94-9.58,7.69Z"/>
        </g>
        <g>
          <path class="cls-3" d="M59.36,85.1l13.27,4.14c.3.09.61-.08.7-.38,0-.03.01-.05.02-.08l.84-16.39c.05-.31-.17-.6-.48-.65,0,0,0,0,0,0l-5.85-.77c-.22-.03-.44.07-.56.26l-8.26,13.02c-.17.27-.09.62.18.79.04.03.09.05.14.06Z"/>
          <path class="cls-3" d="M95.91,79.5l-11.17-6.22c-.06-.03-.13-.06-.2-.06l-9.22-1.24c-.31-.04-.6.17-.64.49,0,.04,0,.07,0,.11l.86,15.68c.02.31.28.55.6.54.07,0,.13-.02.19-.04l19.53-8.22c.29-.12.42-.46.3-.75-.05-.12-.14-.21-.24-.27Z"/>
        </g>
        <g>
          <g>
            <path class="cls-10" d="M66.68,26.75c.08.01-.95-6.66,2.73-9.29,2.73-1.95,5.72-.06,12.19-2.02,1.54-.47,2.76-1,3.55-1.39.51.77,1.02,1.54,1.53,2.31-.69.35-1.78.84-3.19,1.18-2.01.49-3.73.45-6.86.35-2.22-.07-3.66-.24-5.62.45-.5.17-.87.3-1.27.54-3.25,1.93-3.13,7.87-3.06,7.88Z"/>
            <path class="cls-10" d="M66.57,24.74c.12-.8.52-2.64,2.04-4.13,1.54-1.5,3.39-1.8,4.77-2.01,2.94-.44,4.91.22,6.54.47,2.51.38,6.19.08,11.2-3.08.22,1.14.44,2.27.66,3.41-1.88.93-4.26,1.79-7.09,2.07-6.52.64-10.27-2.35-14.47-.28-1.89.93-3.03,2.47-3.67,3.54Z"/>
          </g>
          <g>
            <polygon points="81.46 41.98 87.51 48.03 82.33 50.1 75.93 43.54 75.93 35.24 81.46 35.24 81.46 41.98"/>
            <path class="cls-10" d="M66.35,44.59v26.78s16.46,0,16.46,0l2.14-16.9c1.07-6.76-4.15-12.88-11-12.88-2.96,0-5.62,1.15-7.6,3Z"/>
            <g>
              <path class="cls-3" d="M83,78.27c-.39,0-.79-.05-1.19-.16-2.76-.76-9.62-3.31-13.75-10.68-5.21-9.31-1.6-18.55-.82-20.31,1-2.26,3.64-3.28,5.9-2.28,2.26,1,3.28,3.64,2.28,5.9-.29.66-2.76,6.61.44,12.33,2.54,4.55,7,6.07,8.31,6.43,2.38.65,3.78,3.11,3.13,5.5-.54,1.99-2.35,3.29-4.31,3.29Z"/>
              <g>
                <path class="cls-10" d="M97.11,76c-1.07-.07-1.51-1.41-.69-2.1l.19-.16c.9-.76,2.16-.95,3.24-.48l3.52,1.54c.34.15.49.54.34.87-.04.1-.11.19-.2.26l-.36.28c-.13.1-.29.15-.45.13l-5.6-.35Z"/>
                <g>
                  <path class="cls-9" d="M101.71,67.61l3.24-12.23,11.08-31.7L124.12.76c.15-.43.61-.66,1.04-.52h0c.43.14.67.59.54,1.03l-6.88,23.31-9.75,32.15-4.59,11.8-2.76-.91Z"/>
                  <rect x="116.37" y="21.81" width="2.57" height="3.3" rx=".83" ry=".83" transform="translate(58.89 128.05) rotate(-71.95)"/>
                  <rect x="123.59" y=".2" width="2.41" height="2.2" rx=".71" ry=".71" transform="translate(84.89 119.55) rotate(-71.95)"/>
                  <polygon points="98.08 91.28 93.48 89.78 101.73 67.54 104.53 68.45 98.08 91.28"/>
                  <rect x="102.36" y="61.3" width="2.09" height="12.33" rx=".68" ry=".68" transform="translate(7.22 144.88) rotate(-71.95)"/>
                </g>
                <path class="cls-10" d="M102.29,82.21l1.74-3.8c.44-.96.02-2.09-.94-2.52-.14-.06-.28-.11-.43-.14l-6.89-1.32-1.67,5.33,5.5,3.3c.91.53,2.08.23,2.61-.68.03-.05.06-.11.09-.17Z"/>
                <polygon class="cls-10" points="97.56 74.04 80.94 66.83 77.75 78.7 96.58 80.01 97.56 74.04"/>
              </g>
            </g>
            <g>
              <polygon points="66.33 32.96 77.84 33 76.87 41.98 79.14 49.29 66.35 49.32 66.33 32.96"/>
              <path class="cls-3" d="M69.8,21.08h3.11c4.77,0,8.64,3.87,8.64,8.64v8.81c0,1.91-1.55,3.45-3.45,3.45h-3.11c-4.77,0-8.64-3.87-8.64-8.64v-8.81c0-1.91,1.55-3.45,3.45-3.45Z" transform="translate(147.9 63.05) rotate(-180)"/>
              <path class="cls-9" d="M70.79,32.93v-.55c0-3.57,2.89-6.46,6.46-6.46h0c1.49,0,2.85.5,3.95,1.35.23.78.36,1.6.36,2.45v8.03c-1.14,1.02-2.65,1.64-4.3,1.64h0c-3.57,0-6.46-2.89-6.46-6.46Z"/>
              <polygon class="cls-2" points="80.17 34.38 77.06 34.38 77.06 29.02 80.17 34.38"/>
              <rect class="cls-3" x="68.9" y="27.78" width="12.65" height=".75"/>
              <rect class="cls-3" x="68.9" y="30.89" width="12.65" height=".75"/>
              <rect class="cls-3" x="71.38" y="37.11" width="10.17" height=".75"/>
              <rect class="cls-3" x="68.9" y="34" width="12.65" height=".75"/>
              <rect class="cls-6" x="72.05" y="29.29" width="2.11" height="1.21" rx=".6" ry=".6" transform="translate(146.2 59.8) rotate(180)"/>
              <rect class="cls-6" x="79.11" y="29.29" width="2.11" height="1.21" rx=".6" ry=".6" transform="translate(160.33 59.8) rotate(-180)"/>
              <circle cx="72.05" cy="29.9" r=".6"/>
              <circle cx="79.3" cy="29.9" r=".6"/>
            </g>
          </g>
        </g>
      </g>
      <g>
        <g>
          <path d="M59.01,38.05c.18,0,.36,0,.55.01,2.74.12,4.87.9,6.78,2.54l.32,30.78h-16.82s-2.5-20.25-2.5-20.25c-.79-7,4.71-13.08,11.67-13.08Z"/>
          <path class="cls-1" d="M66.67,27.91l-2.23-5.74c-.7-1.81-2.67-2.78-4.54-2.24l-3.69,1.07c-3.91,1.14-8.06,1.21-12,.2l-.32-.08-.33,6.05,1.14.12c3.87.4,7.78-.19,11.35-1.73l3.45-1.49c1.41-.61,3.05-.29,4.13.79l3.03,3.04Z"/>
          <path class="cls-1" d="M62.21,14.43l-3.46.77c-2.19.49-4.45.53-6.66.13l-4.82-.87-.22,5.76,4.86.22c2.35.11,4.7-.28,6.89-1.14l.9-.35c1.89-.74,4.02.13,4.85,1.97.71,2.33,1.41,4.66,2.12,6.99.06-3.25.12-6.51.18-9.76,0-2.44-2.26-4.25-4.64-3.72Z"/>
          <path class="cls-4" d="M59.52,21.12h0c4.09,0,7.36,3.43,7.15,7.52l-.34,6.9c-.18,3.61-3.16,6.45-6.78,6.45h0c-3.6,0-6.57-2.81-6.78-6.4l-.4-6.9c-.24-4.11,3.03-7.58,7.15-7.58Z"/>
          <rect class="cls-1" x="52.36" y="26.8" width="14.32" height="3.63" transform="translate(119.03 57.22) rotate(-180)"/>
          <path class="cls-9" d="M54.22,28.64h9.47v3.73h-9.47c-1.03,0-1.86-.83-1.86-1.86h0c0-1.03.83-1.86,1.86-1.86Z" transform="translate(116.05 61) rotate(-180)"/>
          <polygon class="cls-7" points="54.58 32.37 56.2 32.37 56.2 29.26 54.58 32.37"/>
          <rect class="cls-6" x="59.72" y="29.91" width="2.11" height="1.21" rx=".6" ry=".6"/>
          <circle cx="61.64" cy="30.52" r=".6"/>
          <rect class="cls-6" x="52.38" y="29.91" width="2.11" height="1.21" rx=".6" ry=".6"/>
          <circle cx="54.3" cy="30.52" r=".6"/>
        </g>
        <g>
          <g>
            <line id="Line_52" data-name="Line 52" class="cls-8" x1="20.59" y1="64.16" x2="32.11" y2="63.85"/>
            <path d="M24.28,61.33l-1.77,5.6-3.52.03c-1.96.02-3.89-.51-5.57-1.52l-2.93-1.76c-.29-.18-.47-.5-.47-.84l.02-2.07c0-.58.51-1.02,1.08-.95l13.16,1.52Z"/>
            <path d="M23.53,60.9l-.11-.16c-.61-.9-1.68-1.37-2.76-1.22l-3.17.44c-.61.09-.91.79-.54,1.29h0c.12.16.29.27.48.31l4.94,1.05c.98.21,1.71-.88,1.15-1.71Z"/>
          </g>
          <path class="cls-4" d="M29.3,59.36c2.72-.11,5.43-.53,8.05-1.23,2.62-.71,5.14-1.73,7.52-2.99,2.39-1.25,4.62-2.78,6.66-4.54,2.04-1.76,3.88-3.75,5.47-5.91,1.62-2.2,4.72-2.67,6.92-1.05,2.2,1.62,2.67,4.72,1.05,6.92-.02.03-.04.05-.06.08l-.02.03c-2.1,2.71-4.5,5.18-7.14,7.35-2.65,2.16-5.53,4.04-8.6,5.55-3.06,1.51-6.31,2.64-9.62,3.4-3.32.75-6.71,1.13-10.09,1.13-2.41,0-4.37-1.96-4.36-4.38,0-2.35,1.86-4.27,4.19-4.36h.03Z"/>
        </g>
        <g>
          <path class="cls-5" d="M86.73,125.86c0-.12-.02-.24-.05-.35-.28-1.36-1.61-2.24-2.97-1.96l-4.73.97-4.57.8c-.74.12-1.29.75-1.31,1.5-.02.86.66,1.57,1.52,1.58l8.6.11h.95c.06,0,.12,0,.18,0,1.39-.08,2.45-1.26,2.38-2.65h-.01Z"/>
          <path class="cls-5" d="M84.22,128.44c-.58,0-1.16-.2-1.63-.61-2.66-2.34-5.3-4.76-7.86-7.2-1.21-1.16-2.44-2.35-3.64-3.54-.97-.96-.98-2.52-.02-3.49.96-.97,2.52-.98,3.49-.02,1.18,1.17,2.38,2.34,3.57,3.47,2.51,2.39,5.11,4.77,7.72,7.06,1.02.9,1.12,2.46.23,3.48-.49.56-1.17.84-1.86.84Z"/>
          <path class="cls-4" d="M72.62,120.45c-1.4,0-2.8-.53-3.88-1.6-4.27-4.26-7.64-9.2-10.01-14.69-3.01-6.94-4.31-14.65-3.77-22.28.21-3.02,2.84-5.29,5.86-5.08,3.02.21,5.3,2.84,5.08,5.86-.29,4.1-.03,10.4,2.89,17.14,1.83,4.21,4.41,8.01,7.7,11.29,2.14,2.14,2.15,5.61,0,7.76-1.07,1.07-2.48,1.61-3.88,1.61Z"/>
        </g>
        <g>
          <path class="cls-5" d="M11.34,128.1c-.53,0-1.06-.17-1.51-.51-1.08-.83-1.28-2.38-.45-3.46,3.65-4.73,7.3-9.46,10.93-14.18.83-1.08,2.38-1.28,3.46-.45,1.08.83,1.28,2.38.45,3.46-3.64,4.72-7.29,9.45-10.94,14.18-.49.63-1.22.96-1.96.96Z"/>
          <path class="cls-5" d="M13.69,125.86c.08,1.39-.98,2.58-2.36,2.66-.06,0-.12,0-.18,0h-.95l-8.6-.11c-.86.02-1.57-.65-1.6-1.51-.02-.8.57-1.49,1.36-1.59l4.57-.8,4.72-.97c1.36-.28,2.69.59,2.97,1.95.02.12.04.24.05.36h.01Z"/>
          <path class="cls-4" d="M21.2,118.26c-1.11,0-2.22-.33-3.19-1.03-2.46-1.76-3.03-5.19-1.27-7.65,2.24-3.13,4.66-6.23,7.18-9.21,7.16-8.45,15.29-16.09,24.17-22.71,2.43-1.81,5.87-1.31,7.68,1.12,1.81,2.43,1.31,5.87-1.12,7.68-8.21,6.13-15.73,13.19-22.35,21.01-2.33,2.75-4.56,5.61-6.63,8.51-1.07,1.5-2.76,2.29-4.46,2.29Z"/>
        </g>
        <g>
          <path d="M74.52,81.45c-3.04-1.63-17.89-10.27-17.89-10.27,0,0-14.52,9.67-17.38,11.81,1.13,1.12,7.44,7.18,17.32,7.01,10.65-.18,17.01-7.45,17.94-8.56Z"/>
          <rect class="cls-1" x="48.98" y="70.34" width="18.34" height="6.09"/>
        </g>
      </g>
    </g>
  </g>
</svg>