<?xml version="1.0" encoding="UTF-8"?>
<svg id="Layer_2" data-name="Layer 2" xmlns="http://www.w3.org/2000/svg" viewBox="0 0 25.26 27.92">
  <defs>
    <style>
      .cls-1 {
        fill: none;
        stroke: #0357ff;
        stroke-miterlimit: 10;
        stroke-width: .28px;
      }

      .cls-2 {
        fill: #2b2bb2;
      }

      .cls-3 {
        fill: #fff;
        font-family: Metric-Regular, Metric;
        font-size: 12px;
      }
    </style>
  </defs>
  <g id="Headers">
    <g id="Question">
      <g>
        <circle class="cls-2" cx="12.63" cy="12.63" r="12.63"/>
        <g>
          <polygon class="cls-2" points="5.34 27.92 5.43 22.67 10.68 22.59 5.34 27.92"/>
          <path class="cls-1" d="M22.59,14.85c.36-1.46.36-2.98,0-4.44h-1.68c-.18-.63-.43-1.24-.75-1.82l1.19-1.15c-.82-1.27-1.92-2.34-3.24-3.14l-1.22,1.13c-.59-.32-1.22-.57-1.88-.75v-1.6c-1.51-.35-3.07-.35-4.58,0v1.63c-.65.17-1.28.41-1.88.73l-1.19-1.13c-1.31.79-2.42,1.87-3.24,3.14l1.16,1.15c-.33.58-.59,1.19-.78,1.82h-1.65c-.36,1.46-.36,2.98,0,4.44h1.68c.18.63.43,1.24.75,1.82l-1.16,1.15c.82,1.27,1.92,2.34,3.24,3.14l1.19-1.13c.59.32,1.22.57,1.88.75v1.6c1.51.35,3.07.35,4.58,0v-1.63c.65-.17,1.28-.41,1.88-.73l1.19,1.15c1.31-.79,2.42-1.87,3.24-3.14l-1.16-1.18c.33-.58.59-1.19.78-1.82h1.65Z"/>
        </g>
      </g>
      <text class="cls-3" transform="translate(10.09 16.2)"><tspan x="0" y="0">?</tspan></text>
    </g>
  </g>
</svg>