<?xml version="1.0" encoding="UTF-8"?>
<svg id="Layer_2" data-name="Layer 2" xmlns="http://www.w3.org/2000/svg" viewBox="0 0 509.68 284.24">
  <defs>
    <style>
      .cls-1 {
        fill: #d6f5f3;
      }

      .cls-2 {
        stroke: #3051e7;
        stroke-width: 6.5px;
      }

      .cls-2, .cls-3, .cls-4, .cls-5, .cls-6, .cls-7 {
        fill: none;
        stroke-miterlimit: 10;
      }

      .cls-2, .cls-3, .cls-5, .cls-6, .cls-7 {
        stroke-linecap: round;
      }

      .cls-8 {
        fill: #141950;
      }

      .cls-9 {
        fill: #301bbf;
      }

      .cls-10 {
        fill: #4b4bf7;
      }

      .cls-11 {
        fill: #2b2bb2;
      }

      .cls-3 {
        stroke-width: 6.63px;
      }

      .cls-3, .cls-6, .cls-7 {
        stroke: #301bbf;
      }

      .cls-4 {
        stroke-width: 1.14px;
      }

      .cls-4, .cls-5 {
        stroke: #fff;
      }

      .cls-12 {
        fill: #fff;
      }

      .cls-13 {
        fill: #5777ea;
      }

      .cls-5 {
        stroke-width: 2.65px;
      }

      .cls-14 {
        fill: #89a0f0;
      }

      .cls-15 {
        fill: #151950;
      }

      .cls-16 {
        fill: #0aa39f;
      }

      .cls-17 {
        fill: #ffac1a;
      }

      .cls-6 {
        stroke-width: 1.26px;
      }

      .cls-7 {
        stroke-width: 1.33px;
      }
    </style>
  </defs>
  <g id="Headers">
    <g id="Screen">
      <g>
        <rect class="cls-8" x=".14" width="509.53" height="283.48" rx="12.57" ry="12.57"/>
        <path class="cls-10" d="M509.53,25.91v245.76c0,6.94-5.63,12.57-12.57,12.57H12.57c-6.94,0-12.57-5.63-12.57-12.57V25.91l41.6-.4c1.18-.01,2.28-.57,2.99-1.51l9.82-13.14c.7-.96,1.84-1.52,3.02-1.52h75.11c1.32,0,2.55.7,3.23,1.85l7.68,12.89c.69,1.14,1.91,1.84,3.24,1.84h362.83Z"/>
        <path class="cls-10" d="M509.68,25.15v23.23H.14v-23.23l41.6-.4c1.18-.01,2.28-.57,2.99-1.51l9.82-13.14c.7-.96,1.84-1.52,3.02-1.52h75.11c1.32,0,2.55.7,3.23,1.85l7.68,12.89c.69,1.14,1.91,1.84,3.24,1.84h362.83Z"/>
        <circle class="cls-17" cx="11.81" cy="12.52" r="3.94"/>
        <circle class="cls-16" cx="24.9" cy="12.52" r="3.94"/>
        <circle class="cls-1" cx="37.99" cy="12.52" r="3.94"/>
        <g>
          <line class="cls-6" x1="15.74" y1="35.7" x2="8.76" y2="35.7"/>
          <polyline class="cls-6" points="11.49 38.44 8.76 35.7 11.49 32.96"/>
        </g>
        <g>
          <line class="cls-6" x1="25.49" y1="35.7" x2="32.48" y2="35.7"/>
          <polyline class="cls-6" points="29.74 32.96 32.48 35.7 29.74 38.44"/>
        </g>
        <rect class="cls-12" x="56.89" y="28.32" width="425.9" height="14.69" rx="1.26" ry="1.26"/>
        <line class="cls-6" x1="491.21" y1="31.61" x2="500.25" y2="31.61"/>
        <line class="cls-6" x1="491.21" y1="39.55" x2="500.25" y2="39.55"/>
        <line class="cls-6" x1="491.21" y1="35.58" x2="500.25" y2="35.58"/>
        <rect class="cls-9" x="48.14" y="185.12" width="185.95" height="84.82" rx="3.95" ry="3.95"/>
        <rect class="cls-9" x="275.44" y="242.08" width="81.54" height="17.59" rx="2.51" ry="2.51"/>
        <line class="cls-3" x1="277.65" y1="190.74" x2="458.95" y2="190.74"/>
        <line class="cls-3" x1="277.65" y1="206.68" x2="414.36" y2="206.68"/>
        <line class="cls-3" x1="277.65" y1="222.61" x2="354.54" y2="222.61"/>
        <line class="cls-7" x1="128.27" y1="14.1" x2="133.14" y2="18.97"/>
        <line class="cls-7" x1="133.14" y1="14.1" x2="128.27" y2="18.97"/>
        <path class="cls-10" d="M161.29,21.29h-11.25c-.44,0-.85-.23-1.08-.61l-3.51-5.82c-.51-.84.1-1.91,1.08-1.91h11.25c.44,0,.85.23,1.08.61l3.51,5.82c.51.84-.1,1.91-1.08,1.91Z"/>
        <g>
          <line class="cls-7" x1="56.89" y1="54.96" x2="73.07" y2="54.96"/>
          <line class="cls-7" x1="56.89" y1="63.32" x2="73.07" y2="63.32"/>
          <line class="cls-7" x1="56.89" y1="59.14" x2="73.07" y2="59.14"/>
        </g>
        <rect class="cls-9" x="150.81" y="56.51" width="39.64" height="5.26"/>
        <rect class="cls-13" x="206.8" y="56.51" width="39.64" height="5.26"/>
        <rect class="cls-13" x="262.8" y="56.51" width="39.64" height="5.26"/>
        <rect class="cls-14" x="318.79" y="56.51" width="39.64" height="5.26"/>
        <rect class="cls-11" x="48.14" y="73.13" width="434.64" height="98.47" rx="3.95" ry="3.95"/>
        <g>
          <g>
            <path class="cls-15" d="M120.56,105.89c0,9.94-8.05,17.99-17.98,17.99s-17.99-8.05-17.99-17.99,8.05-17.98,17.99-17.98,17.98,8.05,17.98,17.98Z"/>
            <g>
              <line class="cls-2" x1="68.42" y1="141.02" x2="136.72" y2="141.02"/>
              <line class="cls-2" x1="68.42" y1="155.88" x2="108.16" y2="155.88"/>
            </g>
          </g>
          <g>
            <path class="cls-10" d="M227.93,105.89c0,9.94-8.05,17.99-17.98,17.99s-17.99-8.05-17.99-17.99,8.05-17.98,17.99-17.98,17.98,8.05,17.98,17.98Z"/>
            <g>
              <line class="cls-2" x1="175.79" y1="141.02" x2="244.09" y2="141.02"/>
              <line class="cls-2" x1="175.79" y1="155.88" x2="231.73" y2="155.88"/>
            </g>
          </g>
          <g>
            <path class="cls-13" d="M335.15,103.55c1.48,11.77-8.42,21.66-20.18,20.17-8.01-1.01-14.48-7.48-15.5-15.5-1.49-11.76,8.41-21.66,20.17-20.18,8.02,1.01,14.49,7.48,15.5,15.5Z"/>
            <g>
              <line class="cls-2" x1="283.16" y1="141.02" x2="351.46" y2="141.02"/>
              <line class="cls-2" x1="283.16" y1="155.88" x2="320.25" y2="155.88"/>
            </g>
          </g>
          <g>
            <path class="cls-14" d="M442.52,103.55c1.48,11.77-8.42,21.66-20.18,20.17-8.01-1.01-14.48-7.48-15.5-15.5-1.49-11.76,8.41-21.66,20.17-20.18,8.02,1.01,14.49,7.48,15.5,15.5Z"/>
            <g>
              <line class="cls-2" x1="389.5" y1="141.02" x2="457.8" y2="141.02"/>
              <line class="cls-2" x1="389.5" y1="155.88" x2="459.87" y2="155.88"/>
            </g>
          </g>
        </g>
        <g>
          <path class="cls-8" d="M182.51,204.41h0c-2.35,0-4.26-1.91-4.26-4.26h0c0-2.35,1.91-4.26,4.26-4.26h0c2.35,0,4.26,1.91,4.26,4.26h0c0,2.35-1.91,4.26-4.26,4.26Z"/>
          <path class="cls-13" d="M182.51,222.66h0c-2.35,0-4.26-1.91-4.26-4.26h0c0-2.35,1.91-4.26,4.26-4.26h0c2.35,0,4.26,1.91,4.26,4.26h0c0,2.35-1.91,4.26-4.26,4.26Z"/>
          <path class="cls-10" d="M182.51,240.92h0c-2.35,0-4.26-1.91-4.26-4.26h0c0-2.35,1.91-4.26,4.26-4.26h0c2.35,0,4.26,1.91,4.26,4.26h0c0,2.35-1.91,4.26-4.26,4.26Z"/>
          <path class="cls-14" d="M182.51,259.17h0c-2.35,0-4.26-1.91-4.26-4.26h0c0-2.35,1.91-4.26,4.26-4.26h0c2.35,0,4.26,1.91,4.26,4.26h0c0,2.35-1.91,4.26-4.26,4.26Z"/>
        </g>
        <g>
          <path class="cls-14" d="M103.06,237.78l12.11,17.29c-2.21,1.55-4.55,2.8-6.95,3.77-.34.14-.7.27-1.05.4-.21.08-.42.15-.64.22-.34.11-.68.23-1.04.33-.34.1-.7.19-1.04.3-8.56,2.3-17.67,1.12-25.4-3.41-.24-.14-.48-.28-.72-.43-.34-.19-.67-.41-1-.63-1.86-1.24-3.62-2.68-5.27-4.32-1.03-1.03-1.97-2.09-2.84-3.18,0,0-.01,0-.01-.01-4.04-5.1-6.29-10.91-6.88-17.68-.99-11.38,3.64-21.92,11.87-28.75.36-.31.74-.6,1.12-.9.39-.28.78-.57,1.16-.84.39-.27.79-.55,1.2-.8.31-.21.63-.4.95-.58.27-.17.55-.33.83-.48.35-.19.71-.38,1.07-.56.41-.22.83-.41,1.27-.6.42-.19.85-.39,1.29-.56,1.25-.52,2.54-.96,3.88-1.31.07-.02.13-.03.19-.06,4.39-1.17,8.8-1.42,13.03-.87,5.4.7,10.52,2.7,14.92,5.76.46.32.9.65,1.35.99.36.28.73.58,1.08.88l-13.82,16.46c2.51,2.23,4.08,5.48,4.08,9.11,0,2.23-.6,4.33-1.65,6.13l.5.28c-.54,1-1.23,1.94-2.07,2.78-.47.47-.98.88-1.5,1.27Z"/>
          <g>
            <path class="cls-8" d="M95.89,227.53l-33.15-5.84c2.87-16.26,16.64-27.81,33.15-27.81v33.66Z"/>
            <path class="cls-8" d="M117.53,201.75l-13.82,16.46-7.82,9.32v-33.66c1.47,0,2.9.08,4.29.25,5.46.64,10.38,2.53,14.92,5.76.46.32.9.65,1.35.99.36.28.73.58,1.08.88Z"/>
            <path class="cls-10" d="M110.09,258.02c-.62.29-1.25.57-1.88.82-.34.14-.7.27-1.05.4-.21.08-.42.15-.64.22-.34.11-.68.23-1.04.33-.34.1-.7.19-1.04.3-8.28,2.17-17.39,1.21-25.4-3.41-.24-.14-.48-.28-.72-.43-.34-.19-.67-.41-1-.63-.49-.33-.97-.67-1.45-1.02-2.56-1.85-4.76-3.96-6.66-6.48,0,0-.01,0-.01-.01-.88-1.16-1.7-2.42-2.47-3.75l18.43-10.63,10.71-6.19,10.25,5.92.5.28,18.4,10.62c-3.6,6.24-8.88,10.86-14.95,13.66Z"/>
            <path class="cls-9" d="M107.79,227.31c0,2.23-.6,4.33-1.65,6.13-2.11,3.64-6.05,6.09-10.56,6.09s-8.25-2.33-10.41-5.81c-1.15-1.86-1.81-4.06-1.81-6.41,0-.67.06-1.32.16-1.96.93-5.81,5.98-10.26,12.06-10.26h.31c3.01.08,5.73,1.24,7.82,3.11,2.51,2.23,4.08,5.48,4.08,9.11Z"/>
          </g>
        </g>
        <line class="cls-5" x1="192.42" y1="200.15" x2="210.71" y2="200.15"/>
        <line class="cls-5" x1="192.42" y1="218.41" x2="210.71" y2="218.41"/>
        <line class="cls-5" x1="192.42" y1="236.66" x2="210.71" y2="236.66"/>
        <line class="cls-5" x1="192.42" y1="254.91" x2="210.71" y2="254.91"/>
      </g>
      <path class="cls-13" d="M125.06,244.35l-18.91-10.92c1.04-1.8,1.64-3.89,1.64-6.12,0-3.62-1.57-6.86-4.07-9.1l13.83-16.47c12.64,10.61,15.76,28.31,7.51,42.61Z"/>
      <polyline class="cls-4" points="59.71 15.66 65.06 20.22 70.41 15.66 75.77 20.22 81.12 15.66 86.48 20.22 91.83 15.66 97.19 20.22 102.55 15.66 107.91 20.22 113.27 15.66"/>
    </g>
  </g>
</svg>